<svg width="16" height="16" viewBox="0 0 16 16" fill="none" xmlns="http://www.w3.org/2000/svg">
<path d="M2.08769 3.17529C1.79922 3.17529 1.52256 3.28989 1.31858 3.49387C1.1146 3.69785 1 3.97451 1 4.26299V14.0522C1 14.3407 1.1146 14.6174 1.31858 14.8213C1.52256 15.0253 1.79922 15.1399 2.08769 15.1399H14.0523C14.3408 15.1399 14.6175 15.0253 14.8214 14.8213C15.0254 14.6174 15.14 14.3407 15.14 14.0522V4.26299C15.14 3.97451 15.0254 3.69785 14.8214 3.49387C14.6175 3.28989 14.3408 3.17529 14.0523 3.17529H11.8769" stroke="#C12E2C" stroke-width="1.5" stroke-linecap="round" stroke-linejoin="round"/>
<path d="M1 7.52637H15.14" stroke="#C12E2C" stroke-width="1.5" stroke-linecap="round" stroke-linejoin="round"/>
<path d="M4.26172 1V5.35077" stroke="#C12E2C" stroke-width="1.5" stroke-linecap="round" stroke-linejoin="round"/>
<path d="M11.877 1V5.35077" stroke="#C12E2C" stroke-width="1.5" stroke-linecap="round" stroke-linejoin="round"/>
<path d="M4.26172 3.17529H9.70019" stroke="#C12E2C" stroke-width="1.5" stroke-linecap="round" stroke-linejoin="round"/>
</svg>
