<svg width="57" height="62" viewBox="0 0 57 62" fill="none" xmlns="http://www.w3.org/2000/svg">
<path d="M26.375 20.9828H22.75V26.9777L15.5 20.9828H4.625C3.66359 20.9828 2.74156 20.5618 2.06174 19.8123C1.38192 19.0628 1 18.0462 1 16.9863V4.99657C1 3.93661 1.38192 2.92007 2.06174 2.17057C2.74156 1.42107 3.66359 1 4.625 1H26.375C27.3364 1 28.2584 1.42107 28.9383 2.17057C29.6181 2.92007 30 3.93661 30 4.99657V16.9863C30 18.0462 29.6181 19.0628 28.9383 19.8123C28.2584 20.5618 27.3364 20.9828 26.375 20.9828V20.9828Z" stroke="#C12E2C" stroke-width="2" stroke-linecap="round" stroke-linejoin="round"/>
<path d="M30 54.9537H33.625V60.9485L40.875 54.9537H51.75C52.7114 54.9537 53.6334 54.5326 54.3133 53.7831C54.9931 53.0336 55.375 52.017 55.375 50.9571V38.9674C55.375 37.9074 54.9931 36.8909 54.3133 36.1414C53.6334 35.3919 52.7114 34.9708 51.75 34.9708H30C29.0386 34.9708 28.1166 35.3919 27.4367 36.1414C26.7569 36.8909 26.375 37.9074 26.375 38.9674V50.9571C26.375 52.017 26.7569 53.0336 27.4367 53.7831C28.1166 54.5326 29.0386 54.9537 30 54.9537V54.9537Z" stroke="#C12E2C" stroke-width="2" stroke-linecap="round" stroke-linejoin="round"/>
<path d="M4.86328 43.9631C4.86328 45.818 5.53164 47.597 6.72132 48.9086C7.91101 50.2202 9.52456 50.9571 11.207 50.9571C12.8895 50.9571 14.5031 50.2202 15.6927 48.9086C16.8824 47.597 17.5508 45.818 17.5508 43.9631C17.5508 42.1082 16.8824 40.3292 15.6927 39.0176C14.5031 37.706 12.8895 36.9691 11.207 36.9691C9.52456 36.9691 7.91101 37.706 6.72132 39.0176C5.53164 40.3292 4.86328 42.1082 4.86328 43.9631V43.9631Z" stroke="#C12E2C" stroke-width="2" stroke-linecap="round" stroke-linejoin="round"/>
<path d="M21.4223 60.9484C20.6835 58.6126 19.3038 56.588 17.4745 55.1554C15.6452 53.7228 13.4569 52.9531 11.2131 52.9531C8.96929 52.9531 6.78104 53.7228 4.95175 55.1554C3.12245 56.588 1.74275 58.6126 1.00391 60.9484" stroke="#C12E2C" stroke-width="2" stroke-linecap="round" stroke-linejoin="round"/>
<path d="M38.8203 9.99228C38.8203 11.8472 39.4887 13.6261 40.6784 14.9378C41.868 16.2494 43.4816 16.9863 45.1641 16.9863C46.8465 16.9863 48.4601 16.2494 49.6498 14.9378C50.8395 13.6261 51.5078 11.8472 51.5078 9.99228C51.5078 8.13736 50.8395 6.35841 49.6498 5.04678C48.4601 3.73516 46.8465 2.99829 45.1641 2.99829C43.4816 2.99829 41.868 3.73516 40.6784 5.04678C39.4887 6.35841 38.8203 8.13736 38.8203 9.99228V9.99228Z" stroke="#C12E2C" stroke-width="2" stroke-linecap="round" stroke-linejoin="round"/>
<path d="M55.3754 26.9777C54.6366 24.6419 53.2569 22.6173 51.4276 21.1847C49.5983 19.7521 47.4101 18.9824 45.1662 18.9824C42.9224 18.9824 40.7342 19.7521 38.9049 21.1847C37.0756 22.6173 35.6959 24.6419 34.957 26.9777" stroke="#C12E2C" stroke-width="2" stroke-linecap="round" stroke-linejoin="round"/>
<path d="M33.625 44.9622H48.125" stroke="#C12E2C" stroke-width="2" stroke-linecap="round" stroke-linejoin="round"/>
<path d="M44.5 40.9657L48.125 44.9623L44.5 48.9588" stroke="#C12E2C" stroke-width="2" stroke-linecap="round" stroke-linejoin="round"/>
<path d="M22.75 10.9915H8.25" stroke="#C12E2C" stroke-width="2" stroke-linecap="round" stroke-linejoin="round"/>
<path d="M11.875 6.99487L8.25 10.9914L11.875 14.988" stroke="#C12E2C" stroke-width="2" stroke-linecap="round" stroke-linejoin="round"/>
</svg>
