<svg width="56" height="56" viewBox="0 0 56 56" fill="none" xmlns="http://www.w3.org/2000/svg">
<path d="M53.1688 38.0528C53.6913 38.1802 54.1558 38.4795 54.4878 38.9025C54.8199 39.3255 55.0003 39.8478 55 40.3856V54.7016H1V28.3592C0.999822 27.9955 1.08229 27.6366 1.24118 27.3094C1.40006 26.9823 1.63121 26.6956 1.91716 26.4709C2.20311 26.2462 2.53638 26.0894 2.8918 26.0124C3.24722 25.9354 3.6155 25.9402 3.9688 26.0264L53.1688 38.0528Z" stroke="#518D43" stroke-width="2" stroke-linecap="round" stroke-linejoin="round"/>
<path d="M11.8004 41.5015H19.0004C19.6369 41.5015 20.2474 41.7543 20.6974 42.2044C21.1475 42.6545 21.4004 43.2649 21.4004 43.9015V54.7015H9.40039V43.9015C9.40039 43.2649 9.65325 42.6545 10.1033 42.2044C10.5534 41.7543 11.1639 41.5015 11.8004 41.5015Z" stroke="#518D43" stroke-width="2" stroke-linecap="round" stroke-linejoin="round"/>
<path d="M29.8008 45.1016H33.4008" stroke="#518D43" stroke-width="2" stroke-linecap="round" stroke-linejoin="round"/>
<path d="M41.7988 45.1016H45.3988" stroke="#518D43" stroke-width="2" stroke-linecap="round" stroke-linejoin="round"/>
<path d="M25.2716 13.0206C26.5289 13.6854 27.4732 14.8193 27.8993 16.1762C28.3255 17.5331 28.1992 19.0034 27.5477 20.2677C26.8963 21.532 25.7724 22.4882 24.4201 22.9287C23.0678 23.3693 21.5963 23.2585 20.3252 22.6206C17.6712 20.3917 15.3762 17.7673 13.5212 14.8398C13.3296 14.5707 13.2158 14.2541 13.1921 13.9247C13.1685 13.5952 13.2359 13.2656 13.3871 12.9719C13.5383 12.6783 13.7673 12.4318 14.0492 12.2597C14.3311 12.0875 14.6549 11.9962 14.9852 11.9958C18.4463 11.8061 21.9159 12.1518 25.2716 13.0206V13.0206Z" stroke="#518D43" stroke-width="2" stroke-linecap="round" stroke-linejoin="round"/>
<path d="M27.4727 20.5278C29.318 22.0332 30.6869 24.0416 31.4135 26.3094" stroke="#518D43" stroke-width="2" stroke-linecap="round" stroke-linejoin="round"/>
<path d="M52.4172 1.10225C52.714 0.997618 53.0331 0.972748 53.3426 1.03013C53.652 1.08751 53.941 1.22514 54.1806 1.42924C54.4201 1.63334 54.6019 1.89677 54.7078 2.19317C54.8136 2.48958 54.8397 2.80857 54.7836 3.11825C53.7612 8.85665 50.5596 20.4103 41.3436 19.6903C39.1227 19.4834 37.0725 18.4102 35.637 16.7029C34.2015 14.9957 33.496 12.7919 33.6734 10.5684C33.8507 8.34488 34.8965 6.28067 36.5845 4.82255C38.2724 3.36444 40.4667 2.62973 42.6924 2.77745C46.0124 2.86062 49.3164 2.29147 52.4172 1.10225V1.10225Z" stroke="#518D43" stroke-width="2" stroke-linecap="round" stroke-linejoin="round"/>
<path d="M31.4121 32.734V25.1212C31.4121 21.3021 32.9292 17.6394 35.6298 14.9389C38.3303 12.2383 41.993 10.7212 45.8121 10.7212" stroke="#518D43" stroke-width="2" stroke-linecap="round" stroke-linejoin="round"/>
</svg>
