<svg width="56" height="60" viewBox="0 0 56 60" fill="none" xmlns="http://www.w3.org/2000/svg">
<path d="M14.5006 16.4286C16.5465 16.4286 18.5087 15.6158 19.9554 14.1691C21.4021 12.7224 22.2148 10.7602 22.2148 8.71429C22.2148 6.66833 21.4021 4.70617 19.9554 3.25946C18.5087 1.81275 16.5465 1 14.5006 1H8.71484V16.4286H14.5006Z" stroke="#518D43" stroke-width="2" stroke-linecap="round" stroke-linejoin="round"/>
<path d="M8.71429 4.85693H1" stroke="#518D43" stroke-width="2" stroke-linecap="round" stroke-linejoin="round"/>
<path d="M8.71429 12.5713H1" stroke="#518D43" stroke-width="2" stroke-linecap="round" stroke-linejoin="round"/>
<path d="M22.2146 8.71436H43.4288C46.4978 8.71436 49.441 9.93348 51.6111 12.1035C53.7811 14.2736 55.0003 17.2169 55.0003 20.2858C55.0003 23.3547 53.7811 26.298 51.6111 28.468C49.441 30.6381 46.4978 31.8572 43.4288 31.8572H14.5003C11.9428 31.8572 9.49014 32.8732 7.68175 34.6815C5.87336 36.4899 4.85742 38.9426 4.85742 41.5001C4.85742 44.0575 5.87336 46.5102 7.68175 48.3186C9.49014 50.127 11.9428 51.1429 14.5003 51.1429H41.5003" stroke="#518D43" stroke-width="2" stroke-linecap="round" stroke-linejoin="round"/>
<path d="M33.4004 58.8573C32.2783 58.8576 31.1696 58.6132 30.1518 58.1411C29.1339 57.6689 28.2312 56.9804 27.5068 56.1235C26.7824 55.2666 26.2536 54.262 25.9573 53.1798C25.6611 52.0975 25.6045 50.9637 25.7915 49.8573C26.1607 48.0141 27.1671 46.3597 28.634 45.1842C30.101 44.0088 31.935 43.3873 33.8143 43.4287H40.2995C43.3463 43.4285 46.3249 44.3304 48.8598 46.0207L54.1364 49.5384C54.4005 49.7145 54.6171 49.9531 54.7668 50.2331C54.9166 50.513 54.995 50.8255 54.995 51.143C54.995 51.4605 54.9166 51.773 54.7668 52.0529C54.6171 52.3328 54.4005 52.5714 54.1364 52.7476L48.8598 56.2653C46.3249 57.9556 43.3463 58.8575 40.2995 58.8573H33.4004Z" stroke="#518D43" stroke-width="2" stroke-linecap="round" stroke-linejoin="round"/>
</svg>
