<svg width="62" height="38" viewBox="0 0 62 38" fill="none" xmlns="http://www.w3.org/2000/svg">
<path d="M53.1074 24.4402L38.334 27.3736" stroke="#C12E2C" stroke-width="2" stroke-linecap="round" stroke-linejoin="round"/>
<path d="M8.81348 24.467H15.3468L24.7069 34.9737C25.0464 35.3465 25.4574 35.6472 25.9156 35.858C26.3737 36.0687 26.8695 36.1851 27.3736 36.2004C32.8227 32.2782 37.942 27.917 42.6803 23.1603C42.9736 22.3336 42.4136 21.507 41.9069 20.8136L35.2136 12.1736" stroke="#C12E2C" stroke-width="2" stroke-linecap="round" stroke-linejoin="round"/>
<path d="M27.2134 5.48015L26.2801 4.68015C25.3213 3.99791 24.1767 3.62566 23.0001 3.61348C22.2875 3.61196 21.5813 3.74777 20.92 4.01348L9 8.76017" stroke="#C12E2C" stroke-width="2" stroke-linecap="round" stroke-linejoin="round"/>
<path d="M1 4.20015H6.33335C7.00515 4.198 7.653 4.44948 8.14739 4.90432C8.64179 5.35916 8.94629 5.98385 9.00003 6.65349V23.7736C8.93996 24.4384 8.6327 25.0566 8.13896 25.5059C7.64522 25.9552 7.00092 26.2029 6.33335 26.2002H1" stroke="#C12E2C" stroke-width="2" stroke-linecap="round" stroke-linejoin="round"/>
<path d="M61 26.2002H55.6667C54.9991 26.2029 54.3548 25.9552 53.8611 25.5059C53.3673 25.0566 53.0601 24.4384 53 23.7736V6.65349C53.0537 5.98385 53.3582 5.35916 53.8526 4.90432C54.347 4.44948 54.9949 4.198 55.6667 4.20015H61" stroke="#C12E2C" stroke-width="2" stroke-linecap="round" stroke-linejoin="round"/>
<path d="M38.3335 11.1335L29.1335 14.1736C28.1188 14.5283 27.008 14.4896 26.0205 14.065C25.033 13.6403 24.2407 12.8607 23.8002 11.8802C23.3256 10.8587 23.2661 9.69282 23.6342 8.62829C24.0023 7.56375 24.7693 6.68368 25.7735 6.17352L34.7335 1.66684C35.6088 1.22152 36.5782 0.992891 37.5602 1.00017C38.2871 1.00506 39.0082 1.13124 39.6936 1.3735L53.0269 6.22686" stroke="#C12E2C" stroke-width="2" stroke-linecap="round" stroke-linejoin="round"/>
</svg>
