<svg width="57" height="57" viewBox="0 0 57 57" fill="none" xmlns="http://www.w3.org/2000/svg">
<path d="M1 33.9058V55.8456" stroke="#C12E2C" stroke-width="2" stroke-linecap="round" stroke-linejoin="round"/>
<path d="M1 52.189H37.25C37.25 50.2494 36.4862 48.3893 35.1265 47.0178C33.7669 45.6463 31.9228 44.8758 30 44.8758H20.9375C20.9375 42.9362 20.1737 41.076 18.814 39.7045C17.4544 38.333 15.6103 37.5625 13.6875 37.5625H1" stroke="#C12E2C" stroke-width="2" stroke-linecap="round" stroke-linejoin="round"/>
<path d="M13.6875 44.8757H20.9375" stroke="#C12E2C" stroke-width="2" stroke-linecap="round" stroke-linejoin="round"/>
<path d="M17.7571 30.4101C15.8423 26.706 15.1186 22.4923 15.6863 18.3542C16.2541 14.2162 18.0852 10.3592 20.9254 7.31888C23.7656 4.27857 27.4738 2.20586 31.5352 1.38862C35.5965 0.571369 39.8093 1.05014 43.5886 2.75844C47.3679 4.46674 50.526 7.31978 52.6243 10.9213C54.7227 14.5229 55.6571 18.6942 55.2979 22.8559C54.9387 27.0177 53.3036 30.9633 50.6198 34.1449C47.936 37.3264 44.3366 39.586 40.3215 40.6097" stroke="#C12E2C" stroke-width="2" stroke-linecap="round" stroke-linejoin="round"/>
<path d="M33.625 8.30945V22.936H42.6875" stroke="#C12E2C" stroke-width="2" stroke-linecap="round" stroke-linejoin="round"/>
</svg>
