<?xml version="1.0" encoding="utf-8"?>
<!-- Generator: Adobe Illustrator 25.4.1, SVG Export Plug-In . SVG Version: 6.00 Build 0)  -->
<svg version="1.1" id="Layer_1" xmlns="http://www.w3.org/2000/svg" xmlns:xlink="http://www.w3.org/1999/xlink" x="0px" y="0px"
	 viewBox="0 0 448 448" style="enable-background:new 0 0 448 448;" xml:space="preserve">
<g>
	<path d="M336,192c26.5,0,48-21.5,48-48s-21.5-48-48-48s-48,21.5-48,48S309.5,192,336,192z"/>
	<path d="M420,32H28C12.4,32,0,44.7,0,60.3v327.4C0,403.3,12.4,416,28,416h392c15.6,0,28-12.7,28-28.3V60.3
		C448,44.7,435.6,32,420,32z M316.9,229.7c-3-3.5-7.6-6.2-12.8-6.2c-5.1,0-8.7,2.4-12.8,5.7L272.6,245c-3.9,2.8-7,4.7-11.5,4.7
		c-4.3,0-8.2-1.6-11-4.1c-1-0.9-2.8-2.6-4.3-4.1L192,183.3c-4-4.6-10-7.5-16.7-7.5s-12.9,3.3-16.8,7.8L32,336.2V75.7
		C33,68.9,38.3,64,45.1,64h357.7c6.9,0,12.5,5.1,12.9,12l0.3,260.4L316.9,229.7z"/>
</g>
</svg>
