<svg xmlns="http://www.w3.org/2000/svg" width="42" height="41" viewBox="0 0 42 41">
  <g id="Group_280" data-name="Group 280" transform="translate(-331 -1698)">
    <g id="Ellipse_2" data-name="Ellipse 2" transform="translate(331 1698)" fill="none" stroke="#ff914d" stroke-width="2">
      <ellipse cx="21" cy="20.5" rx="21" ry="20.5" stroke="none"/>
      <ellipse cx="21" cy="20.5" rx="20" ry="19.5" fill="none"/>
    </g>
    <g id="Icon_feather-instagram" data-name="Icon feather-instagram" transform="translate(343.195 1709.424)">
      <path id="Path_80" data-name="Path 80" d="M7.477,3H16.43a4.477,4.477,0,0,1,4.477,4.477V16.43a4.477,4.477,0,0,1-4.477,4.477H7.477A4.477,4.477,0,0,1,3,16.43V7.477A4.477,4.477,0,0,1,7.477,3Z" transform="translate(-3 -3)" fill="none" stroke="#ff914d" stroke-linecap="round" stroke-linejoin="round" stroke-width="2"/>
      <path id="Path_81" data-name="Path 81" d="M19.189,14.991a3.581,3.581,0,1,1-3.017-3.017A3.581,3.581,0,0,1,19.189,14.991Z" transform="translate(-6.654 -6.602)" fill="none" stroke="#ff914d" stroke-linecap="round" stroke-linejoin="round" stroke-width="2"/>
      <path id="Path_82" data-name="Path 82" d="M26.25,9.75h0" transform="translate(-12.372 -5.721)" fill="none" stroke="#ff914d" stroke-linecap="round" stroke-linejoin="round" stroke-width="2"/>
    </g>
  </g>
</svg>
