<svg width="60" height="61" viewBox="0 0 60 61" fill="none" xmlns="http://www.w3.org/2000/svg">
<path d="M1 58.999C3.09944 59.2588 5.2304 59.0465 7.2373 58.3776C9.24419 57.7086 11.0764 56.5999 12.6 55.1323C13.699 56.3496 15.0411 57.3227 16.5398 57.9887C18.0384 58.6547 19.6601 58.9988 21.3 58.9988C22.9399 58.9988 24.5616 58.6547 26.0602 57.9887C27.5589 57.3227 28.901 56.3496 30 55.1323C31.099 56.3496 32.4411 57.3227 33.9397 57.9887C35.4384 58.6547 37.0601 58.9988 38.7 58.9988C40.3399 58.9988 41.9616 58.6547 43.4603 57.9887C44.9589 57.3227 46.301 56.3496 47.4 55.1323C48.9236 56.5999 50.7558 57.7086 52.7627 58.3776C54.7696 59.0465 56.9006 59.2588 59 58.999" stroke="#518D43" stroke-width="2" stroke-linecap="round" stroke-linejoin="round"/>
<path d="M51.2675 18.6167C48.4632 18.6272 45.6885 19.19 43.1018 20.2731C40.5151 21.3562 38.1671 22.9382 36.192 24.9289C34.2168 26.9196 32.6532 29.2799 31.5905 31.8751C30.5278 34.4702 29.9867 37.2492 29.9982 40.0535C32.8024 40.0427 35.577 39.4796 38.1635 38.3964C40.7501 37.3132 43.0979 35.7312 45.073 33.7405C47.048 31.7499 48.6117 29.3897 49.6745 26.7947C50.7374 24.1998 51.2787 21.4209 51.2675 18.6167V18.6167Z" stroke="#518D43" stroke-width="2" stroke-linecap="round" stroke-linejoin="round"/>
<path d="M35.5893 25.5611C37.049 21.3558 37.301 16.8257 36.3169 12.4845C35.3327 8.14323 33.1517 4.16467 30.0213 1C26.8786 4.17622 24.6928 8.17246 23.7136 12.5321C22.7345 16.8917 23.0015 21.4388 24.4842 25.6539" stroke="#518D43" stroke-width="2" stroke-linecap="round" stroke-linejoin="round"/>
<path d="M8.73065 18.6167C11.5345 18.6278 14.3087 19.1912 16.8948 20.2746C19.4809 21.3579 21.8282 22.9401 23.8028 24.9307C25.7774 26.9214 27.3406 29.2815 28.403 31.8762C29.4654 34.471 30.0063 37.2497 29.9947 40.0535C27.1909 40.0424 24.4167 39.479 21.8306 38.3956C19.2445 37.3123 16.8971 35.7301 14.9226 33.7395C12.948 31.7488 11.3848 29.3887 10.3224 26.794C9.26 24.1992 8.71912 21.4205 8.73065 18.6167V18.6167Z" stroke="#518D43" stroke-width="2" stroke-linecap="round" stroke-linejoin="round"/>
<path d="M30 49.3334V40.0508" stroke="#518D43" stroke-width="2" stroke-linecap="round" stroke-linejoin="round"/>
</svg>
