<svg width="12" height="16" viewBox="0 0 12 16" fill="none" xmlns="http://www.w3.org/2000/svg">
<path d="M10.7892 5.89462C10.7892 8.60297 5.89462 15.14 5.89462 15.14C5.89462 15.14 1 8.60297 1 5.89462C1 4.59648 1.51568 3.35152 2.4336 2.4336C3.35152 1.51568 4.59648 1 5.89462 1C7.19275 1 8.43771 1.51568 9.35563 2.4336C10.2735 3.35152 10.7892 4.59648 10.7892 5.89462V5.89462Z" stroke="#C12E2C" stroke-width="1.5" stroke-linecap="round" stroke-linejoin="round"/>
<path d="M5.89326 7.52675C6.79433 7.52675 7.5248 6.79628 7.5248 5.89521C7.5248 4.99414 6.79433 4.26367 5.89326 4.26367C4.99218 4.26367 4.26172 4.99414 4.26172 5.89521C4.26172 6.79628 4.99218 7.52675 5.89326 7.52675Z" stroke="#C12E2C" stroke-width="1.5" stroke-linecap="round" stroke-linejoin="round"/>
</svg>
