<svg width="69" height="69" viewBox="0 0 69 69" fill="none" xmlns="http://www.w3.org/2000/svg">
<path d="M62.5312 53.9062H32.3438L15.0938 66.8438V53.9062H6.46875C5.32502 53.9062 4.22809 53.452 3.41935 52.6433C2.6106 51.8345 2.15625 50.7374 2.15625 49.5938V6.46875C2.15625 5.32502 2.6106 4.22809 3.41935 3.41935C4.22809 2.6106 5.32502 2.15625 6.46875 2.15625H62.5312C63.6749 2.15625 64.772 2.6106 65.5808 3.41935C66.3895 4.22809 66.8438 5.32502 66.8438 6.46875V49.5938C66.8438 50.7374 66.3895 51.8345 65.5808 52.6433C64.772 53.452 63.6749 53.9062 62.5312 53.9062Z" stroke="#C12E2C" stroke-width="3.875" stroke-linecap="round" stroke-linejoin="round"/>
<path d="M28.0312 19.4062C28.0316 17.825 28.4665 16.2744 29.2885 14.9237C30.1107 13.573 31.288 12.4743 32.6925 11.7476C34.0966 11.021 35.6739 10.6943 37.2511 10.8034C38.8286 10.9124 40.3457 11.453 41.6366 12.366C42.9275 13.279 43.9427 14.5294 44.5708 15.9803C45.1993 17.4313 45.4167 19.027 45.1993 20.5932C44.982 22.1593 44.3385 23.6357 43.3389 24.8607C42.3393 26.0858 41.0219 27.0125 39.5312 27.5396C38.6906 27.8368 37.9627 28.3873 37.4477 29.1154C36.9328 29.8434 36.6562 30.713 36.6562 31.6049V32.3437" stroke="#C12E2C" stroke-width="3.875" stroke-linecap="round" stroke-linejoin="round"/>
<path d="M36.6562 43.125C36.0608 43.125 35.5781 42.6423 35.5781 42.0469C35.5781 41.4515 36.0608 40.9688 36.6562 40.9688" stroke="#C12E2C" stroke-width="3.875"/>
<path d="M36.6562 43.125C37.2517 43.125 37.7344 42.6423 37.7344 42.0469C37.7344 41.4515 37.2517 40.9688 36.6562 40.9688" stroke="#C12E2C" stroke-width="3.875"/>
</svg>
