<svg width="47" height="47" viewBox="0 0 47 47" fill="none" xmlns="http://www.w3.org/2000/svg">
<path d="M1 37.0508H15.6821" stroke="#C12E2C" stroke-width="2" stroke-linecap="round" stroke-linejoin="round"/>
<path d="M39.1738 37.0508H45.0467" stroke="#C12E2C" stroke-width="2" stroke-linecap="round" stroke-linejoin="round"/>
<path d="M1 28.2415H15.6821" stroke="#C12E2C" stroke-width="2" stroke-linecap="round" stroke-linejoin="round"/>
<path d="M1 19.4323H21.5549" stroke="#C12E2C" stroke-width="2" stroke-linecap="round" stroke-linejoin="round"/>
<path d="M24.4913 10.623H3.93642C3.15763 10.623 2.41074 10.9324 1.86006 11.4831C1.30937 12.0338 1 12.7807 1 13.5595V42.9236C1 43.7024 1.30937 44.4493 1.86006 45C2.41074 45.5507 3.15763 45.86 3.93642 45.86H45.0462" stroke="#C12E2C" stroke-width="2" stroke-linecap="round" stroke-linejoin="round"/>
<path d="M36.5176 14.4963L32.3649 10.3436L41.7085 0.999999L45.8612 5.15272L36.5176 14.4963Z" stroke="#C12E2C" stroke-width="2" stroke-linecap="round" stroke-linejoin="round"/>
<path d="M33.3984 25.9159L38.59 20.7262C38.8629 20.4536 39.0794 20.1298 39.227 19.7734C39.3747 19.417 39.4507 19.035 39.4507 18.6492C39.4507 18.2634 39.3747 17.8815 39.227 17.5251C39.0794 17.1687 38.8629 16.8449 38.59 16.5722L34.4399 12.4201" stroke="#C12E2C" stroke-width="2" stroke-linecap="round" stroke-linejoin="round"/>
<path d="M22.2005 35.2106C22.0946 35.4771 22.069 35.7688 22.127 36.0497C22.1849 36.3306 22.3239 36.5883 22.5267 36.7911C22.7295 36.9939 22.9873 37.1329 23.2681 37.1909C23.549 37.2488 23.8407 37.2233 24.1072 37.1173L37.7733 31.685C38.1984 31.4834 38.5688 31.1826 38.8534 30.808C39.138 30.4334 39.3284 29.9959 39.4086 29.5323C39.4889 29.0687 39.4565 28.5927 39.3143 28.1442C39.1721 27.6958 38.9243 27.288 38.5916 26.9554L32.3625 20.7262C32.0298 20.3936 31.6221 20.1457 31.1736 20.0035C30.7252 19.8613 30.2491 19.829 29.7855 19.9092C29.322 19.9894 28.8845 20.1798 28.5098 20.4644C28.1352 20.749 27.8345 21.1194 27.6329 21.5445L22.2005 35.2106Z" stroke="#C12E2C" stroke-width="2" stroke-linecap="round" stroke-linejoin="round"/>
<path d="M9.80957 28.2415V37.0508" stroke="#C12E2C" stroke-width="2" stroke-linecap="round" stroke-linejoin="round"/>
<path d="M12.7461 19.4323V28.2415" stroke="#C12E2C" stroke-width="2" stroke-linecap="round" stroke-linejoin="round"/>
<path d="M18.6182 10.623V19.4323" stroke="#C12E2C" stroke-width="2" stroke-linecap="round" stroke-linejoin="round"/>
<path d="M12.7461 37.0508V45.86" stroke="#C12E2C" stroke-width="2" stroke-linecap="round" stroke-linejoin="round"/>
<path d="M33.3008 39.9872V45.86" stroke="#C12E2C" stroke-width="2" stroke-linecap="round" stroke-linejoin="round"/>
</svg>
