<?xml version="1.0" encoding="utf-8"?>
<!-- Generator: Adobe Illustrator 25.4.1, SVG Export Plug-In . SVG Version: 6.00 Build 0)  -->
<svg version="1.1" baseProfile="tiny" id="Lag_1" xmlns="http://www.w3.org/2000/svg" xmlns:xlink="http://www.w3.org/1999/xlink"
	 x="0px" y="0px" viewBox="0 0 244 65" overflow="visible" xml:space="preserve">
<path fill="#FFFFFF" d="M178.9,21c-0.9,0.1-1.6,0.3-2,0.7c-0.4,0.3-0.6,0.8-0.6,1.4v0.2c0,0.6,0.2,1.1,0.6,1.4
	c0.4,0.3,0.9,0.5,1.7,0.5c0.7,0,1.3-0.1,1.8-0.4c0.5-0.2,0.9-0.6,1.2-0.9c0.3-0.3,0.5-0.7,0.6-1.1v-2.2L178.9,21z"/>
<path fill="#FFFFFF" d="M122.5,29.8c0.5,0.1,1.2,0.2,1.9,0.2h0.3c0.8,0,1.4-0.1,2-0.2c0.5-0.1,0.9-0.3,1.2-0.5
	c0.3-0.2,0.4-0.6,0.4-0.9v0c0-0.5-0.2-0.8-0.5-1c-0.3-0.2-0.9-0.4-1.7-0.5l-3.4-0.3c-0.3,0.1-0.6,0.2-0.9,0.3
	c-0.3,0.2-0.6,0.3-0.8,0.6c-0.2,0.2-0.3,0.5-0.3,0.9v0c0,0.4,0.1,0.8,0.4,1C121.5,29.6,121.9,29.7,122.5,29.8z"/>
<path fill="#FFFFFF" d="M122.7,20.7c0.5,0.2,1.1,0.3,1.8,0.3c0.7,0,1.3-0.1,1.7-0.3c0.5-0.2,0.8-0.5,1-0.9c0.2-0.4,0.4-0.9,0.4-1.5
	v-0.2c0-0.6-0.1-1.1-0.3-1.5c-0.2-0.4-0.6-0.7-1-0.9c-0.5-0.2-1-0.3-1.7-0.3h-0.1c-0.7,0-1.4,0.1-1.8,0.3c-0.5,0.2-0.8,0.5-1,0.9
	c-0.2,0.4-0.3,0.9-0.3,1.4v0.2c0,0.6,0.1,1.1,0.4,1.5C121.8,20.2,122.2,20.5,122.7,20.7z"/>
<path fill="#FFFFFF" d="M169.5,45.3c0-0.7-0.1-1.4-0.4-1.9c-0.2-0.5-0.6-0.9-1.1-1.2c-0.5-0.3-1.1-0.4-1.8-0.4
	c-1.1,0-1.8,0.3-2.4,0.9c-0.5,0.6-0.8,1.5-0.8,2.6v0.4h6.3C169.5,45.6,169.5,45.4,169.5,45.3z"/>
<path fill="#FFFFFF" d="M87.4,24.1c0.5-0.5,0.7-1.1,0.7-1.9v-0.4c0-0.8-0.2-1.5-0.7-1.9c-0.5-0.4-1.3-0.7-2.4-0.7h-4.3v5.6H85
	C86.1,24.8,86.9,24.5,87.4,24.1z"/>
<path fill="#FFFFFF" d="M149.9,50c0.3,0.5,0.7,0.9,1.2,1.1c0.5,0.2,1.1,0.4,1.8,0.4c1,0,1.8-0.3,2.3-0.9c0.5-0.6,0.8-1.5,0.8-2.7
	v-2.5c0-1.1-0.3-2-0.8-2.6c-0.5-0.6-1.3-0.9-2.3-0.9c-0.6,0-1.2,0.1-1.7,0.4c-0.5,0.2-0.9,0.6-1.2,1c-0.3,0.4-0.5,0.8-0.6,1.2v3.6
	C149.5,48.8,149.6,49.5,149.9,50z"/>
<path fill="#FFFFFF" d="M164.5,24.7c0.5,0.2,1.1,0.4,1.8,0.4c1,0,1.8-0.3,2.3-0.9c0.5-0.6,0.8-1.5,0.8-2.6V19c0-1.1-0.3-2-0.8-2.6
	c-0.5-0.6-1.3-0.9-2.4-0.9c-0.6,0-1.2,0.1-1.6,0.4c-0.5,0.2-0.9,0.6-1.2,1c-0.3,0.4-0.5,0.8-0.6,1.2v3.6c0,0.7,0.2,1.4,0.5,1.9
	C163.6,24.1,164,24.5,164.5,24.7z"/>
<path fill="#FFFFFF" d="M126.6,48c-0.4,0.3-0.6,0.8-0.6,1.4v0.2c0,0.6,0.2,1.1,0.6,1.4c0.4,0.3,0.9,0.5,1.7,0.5
	c0.7,0,1.3-0.1,1.8-0.4c0.5-0.2,0.9-0.6,1.2-0.9c0.3-0.3,0.5-0.7,0.6-1.1v-2.2l-3.4,0.5C127.6,47.4,127,47.7,126.6,48z"/>
<path fill="#FFFFFF" d="M91.7,48c-0.4,0.3-0.6,0.8-0.6,1.4v0.2c0,0.6,0.2,1.1,0.6,1.4c0.4,0.3,0.9,0.5,1.7,0.5
	c0.7,0,1.3-0.1,1.8-0.4c0.5-0.2,0.9-0.6,1.2-0.9c0.3-0.3,0.5-0.7,0.6-1.1v-2.2l-3.4,0.5C92.8,47.4,92.1,47.7,91.7,48z"/>
<path fill="#FFFFFF" d="M187.2,42.3c-0.5-0.3-1.1-0.4-1.8-0.4c-1,0-1.8,0.3-2.3,0.9c-0.5,0.6-0.8,1.5-0.8,2.6V48
	c0,1.1,0.3,2,0.8,2.6c0.5,0.6,1.3,0.9,2.3,0.9c0.6,0,1.2-0.1,1.6-0.4c0.5-0.2,0.9-0.6,1.2-1c0.3-0.4,0.5-0.8,0.6-1.2v-3.6
	c0-0.7-0.2-1.3-0.5-1.8C188.1,42.9,187.7,42.6,187.2,42.3z"/>
<path fill="#FFFFFF" d="M87.1,16.3c0.4-0.4,0.7-1.1,0.7-1.8v-0.2c0-0.8-0.2-1.4-0.6-1.8c-0.4-0.4-1.2-0.6-2.2-0.6h-4.2V17h4.3
	C85.9,17,86.7,16.8,87.1,16.3z"/>
<path fill="#FFFFFF" d="M109.3,20.7c0.5,0.2,1.1,0.3,1.8,0.3c0.7,0,1.3-0.1,1.7-0.3c0.5-0.2,0.8-0.5,1-0.9c0.2-0.4,0.4-0.9,0.4-1.5
	v-0.2c0-0.6-0.1-1.1-0.3-1.5c-0.2-0.4-0.6-0.7-1-0.9c-0.5-0.2-1-0.3-1.7-0.3H111c-0.8,0-1.4,0.1-1.8,0.3c-0.5,0.2-0.8,0.5-1,0.9
	c-0.2,0.4-0.3,0.9-0.3,1.4v0.2c0,0.6,0.1,1.1,0.4,1.5C108.4,20.2,108.8,20.5,109.3,20.7z"/>
<path fill="#FFFFFF" d="M109.1,29.8c0.5,0.1,1.2,0.2,1.9,0.2h0.3c0.8,0,1.4-0.1,2-0.2c0.5-0.1,0.9-0.3,1.2-0.5
	c0.3-0.2,0.4-0.6,0.4-0.9v0c0-0.5-0.2-0.8-0.5-1c-0.3-0.2-0.9-0.4-1.7-0.5l-3.4-0.3c-0.3,0.1-0.6,0.2-0.9,0.3
	c-0.3,0.2-0.6,0.3-0.8,0.6c-0.2,0.2-0.3,0.5-0.3,0.9v0c0,0.4,0.1,0.8,0.4,1C108.1,29.6,108.5,29.7,109.1,29.8z"/>
<path fill="#FFFFFF" d="M64.8,0.2V65H244V0.2H64.8z M176.8,10c0-0.7,0.2-1.3,0.7-1.7c0.4-0.4,1.1-0.6,2-0.6c0.9,0,1.6,0.2,2,0.6
	c0.4,0.4,0.7,1,0.7,1.7v0.1c0,0.7-0.2,1.2-0.7,1.7c-0.4,0.4-1.1,0.6-2,0.6c-0.9,0-1.6-0.2-2-0.6C177,11.3,176.8,10.7,176.8,10
	L176.8,10z M132,19.3c0-1.9,0.5-3.3,1.5-4.4c1-1,2.4-1.5,4.3-1.5c1.3,0,2.3,0.2,3.2,0.7c0.8,0.5,1.5,1.1,1.9,2
	c0.4,0.9,0.6,1.9,0.6,3v0.5c0,0.3,0,0.6,0,0.9c0,0.3-0.1,0.6-0.1,0.9h-0.5h-1.9h-6.3v0.3c0,0.5,0.1,1,0.2,1.4
	c0.1,0.4,0.4,0.8,0.7,1.1c0.3,0.3,0.8,0.5,1.3,0.7c0.5,0.2,1.2,0.2,1.9,0.2c0.8,0,1.6-0.1,2.4-0.3c0.7-0.2,1.4-0.5,2.1-0.9l-0.2,2.3
	c-0.6,0.4-1.3,0.6-2.1,0.9c-0.8,0.2-1.7,0.3-2.6,0.3c-2.1,0-3.7-0.5-4.7-1.5c-1.1-1-1.6-2.5-1.6-4.4V19.3z M118.3,28.9
	c0-0.5,0.1-0.9,0.3-1.3c0.2-0.4,0.5-0.6,0.9-0.9c0.4-0.2,0.9-0.4,1.3-0.4v-0.1c-0.7-0.1-1.1-0.4-1.5-0.7c-0.3-0.3-0.5-0.7-0.5-1.2v0
	c0-0.3,0.1-0.6,0.2-0.9c0.2-0.2,0.4-0.4,0.7-0.6c0.3-0.2,0.7-0.2,1.2-0.3v-0.1c-0.3-0.2-0.6-0.3-0.9-0.6c-1-0.8-1.5-1.9-1.5-3.4
	v-0.2c0-0.9,0.2-1.7,0.6-2.4c0.4-0.7,1-1.2,1.9-1.6c0.9-0.4,2-0.6,3.4-0.6l6.9-0.2v2.1l-3.7-0.2v0.2c0.5,0.1,1,0.3,1.3,0.6
	s0.6,0.6,0.8,1.1c0.2,0.4,0.3,0.9,0.3,1.5v0.2c0,1.4-0.5,2.5-1.4,3.2c-0.9,0.7-2.3,1.1-4.2,1.1c-0.7,0-1.3-0.1-1.8-0.2
	c-0.4,0-0.7,0.1-0.9,0.2c-0.2,0.1-0.3,0.3-0.3,0.5v0c0,0.3,0.2,0.5,0.5,0.6c0.3,0.1,0.8,0.2,1.5,0.3l3.2,0.4c1.4,0.2,2.5,0.5,3.1,1
	c0.7,0.5,1,1.4,1,2.5v0.1c0,0.9-0.2,1.6-0.7,2.1c-0.5,0.5-1.2,0.9-2.1,1.2c-0.9,0.3-2,0.4-3.3,0.4h-0.4c-1.2,0-2.3-0.1-3.1-0.3
	c-0.9-0.2-1.6-0.6-2-1C118.6,30.3,118.3,29.7,118.3,28.9L118.3,28.9L118.3,28.9z M104.9,28.9c0-0.5,0.1-0.9,0.3-1.3
	c0.2-0.4,0.5-0.6,0.9-0.9c0.4-0.2,0.9-0.4,1.3-0.4v-0.1c-0.7-0.1-1.1-0.4-1.5-0.7c-0.3-0.3-0.5-0.7-0.5-1.2v0c0-0.3,0.1-0.6,0.2-0.9
	c0.2-0.2,0.4-0.4,0.7-0.6c0.3-0.2,0.7-0.2,1.2-0.3v-0.1c-0.3-0.2-0.6-0.3-0.9-0.6c-1-0.8-1.5-1.9-1.5-3.4v-0.2
	c0-0.9,0.2-1.7,0.6-2.4c0.4-0.7,1-1.2,1.9-1.6c0.9-0.4,2-0.6,3.4-0.6l6.9-0.2v2.1l-3.7-0.2v0.2c0.5,0.1,1,0.3,1.3,0.6
	s0.6,0.6,0.8,1.1c0.2,0.4,0.3,0.9,0.3,1.5v0.2c0,1.4-0.5,2.5-1.4,3.2c-0.9,0.7-2.3,1.1-4.2,1.1c-0.7,0-1.3-0.1-1.8-0.2
	c-0.4,0-0.7,0.1-0.9,0.2c-0.2,0.1-0.3,0.3-0.3,0.5v0c0,0.3,0.1,0.5,0.5,0.6c0.3,0.1,0.8,0.2,1.5,0.3l3.2,0.4c1.4,0.2,2.5,0.5,3.1,1
	c0.7,0.5,1,1.4,1,2.5v0.1c0,0.9-0.2,1.6-0.7,2.1c-0.5,0.5-1.2,0.9-2.1,1.2c-0.9,0.3-2,0.4-3.3,0.4h-0.4c-1.2,0-2.3-0.1-3.1-0.3
	c-0.9-0.2-1.6-0.6-2-1C105.2,30.3,104.9,29.7,104.9,28.9L104.9,28.9L104.9,28.9z M94.6,13.7l3.3,10.9h0.3l3.5-10.9h2.7l-6,18h-2.7
	l1.8-5.2H96l-4.2-12.7H94.6z M77.9,9.6h1.8h0.9h4.5c1.9,0,3.3,0.4,4.1,1.1c0.8,0.7,1.2,1.8,1.2,3.1v0.2c0,1-0.2,1.9-0.7,2.4
	c-0.5,0.6-1.2,0.9-2.2,1.1v0.1c1.1,0.2,2,0.7,2.5,1.3c0.5,0.7,0.8,1.6,0.8,2.8v0.5c0,1.5-0.4,2.6-1.3,3.5c-0.9,0.8-2.3,1.2-4.2,1.2
	h-4.7h-0.8h-1.9V9.6z M87.3,49.8c0,1.3-0.4,2.3-1.3,2.9c-0.9,0.6-2.2,1-4,1c-1.1,0-2-0.1-2.8-0.3c-0.8-0.2-1.5-0.5-2-0.7l-0.2-2.4
	c0.7,0.3,1.4,0.6,2.2,0.9c0.8,0.2,1.7,0.4,2.7,0.4c1,0,1.7-0.1,2.1-0.4c0.5-0.3,0.7-0.7,0.7-1.3v-0.1c0-0.4-0.1-0.7-0.3-0.9
	s-0.5-0.5-1-0.6c-0.5-0.2-1.2-0.4-2.1-0.6c-1.1-0.3-2-0.6-2.6-0.9c-0.6-0.3-1.1-0.8-1.4-1.3c-0.3-0.5-0.4-1.1-0.4-1.8v-0.1
	c0-1.2,0.4-2.1,1.2-2.7c0.8-0.6,2.1-0.9,3.7-0.9c1,0,2,0.1,2.7,0.3c0.8,0.2,1.4,0.5,1.9,0.8l0.2,2.2c-0.6-0.3-1.3-0.6-2.1-0.8
	c-0.8-0.2-1.6-0.3-2.6-0.3c-0.6,0-1.2,0.1-1.5,0.2c-0.4,0.1-0.7,0.3-0.8,0.5c-0.2,0.2-0.3,0.5-0.3,0.8v0.1c0,0.3,0.1,0.6,0.3,0.9
	c0.2,0.2,0.5,0.5,1,0.7c0.5,0.2,1.1,0.4,1.9,0.6c1.1,0.2,2,0.5,2.7,0.8c0.7,0.3,1.2,0.7,1.4,1.2c0.3,0.5,0.4,1.1,0.4,1.9L87.3,49.8
	L87.3,49.8z M99.7,53.4H97l0.1-2.7H97c-0.1,0.5-0.4,1-0.7,1.5c-0.3,0.5-0.8,0.8-1.4,1.1c-0.6,0.3-1.4,0.4-2.3,0.4
	c-1.3,0-2.3-0.3-3-1c-0.7-0.6-1-1.6-1-2.8v-0.4c0-1.3,0.4-2.2,1.2-2.8c0.8-0.6,2-1,3.7-1.3l3.7-0.5c0-1-0.3-1.7-0.8-2.2
	C95.8,42.2,95,42,93.8,42c-0.9,0-1.8,0.1-2.6,0.4c-0.8,0.3-1.5,0.6-2.2,0.9l0.2-2.2c0.4-0.2,0.8-0.4,1.3-0.6c0.5-0.2,1-0.4,1.7-0.5
	c0.6-0.1,1.3-0.2,2-0.2c1,0,1.8,0.1,2.5,0.4c0.7,0.2,1.3,0.6,1.7,1s0.7,1,0.9,1.6c0.2,0.6,0.3,1.3,0.3,2.1L99.7,53.4L99.7,53.4z
	 M121.4,53.4h-2.7v-8.3c0-0.6-0.1-1.2-0.2-1.6c-0.2-0.5-0.4-0.8-0.8-1.1c-0.4-0.3-0.9-0.4-1.5-0.4c-0.6,0-1.1,0.1-1.5,0.4
	c-0.4,0.2-0.8,0.6-1,1c-0.2,0.3-0.4,0.7-0.5,1.1c0,0.1,0,0.2,0,0.3v8.6h-2.6v-8.3c0-0.6-0.1-1.2-0.2-1.6c-0.2-0.5-0.4-0.8-0.8-1.1
	c-0.4-0.3-0.9-0.4-1.5-0.4c-0.6,0-1.1,0.1-1.5,0.4c-0.4,0.2-0.8,0.6-1,1c-0.2,0.3-0.4,0.6-0.5,1v9.1h-2.7V40h2.7l-0.1,2.7h0.1
	c0.1-0.6,0.4-1.1,0.7-1.5c0.3-0.5,0.8-0.8,1.3-1.1c0.6-0.3,1.2-0.4,2-0.4c1.2,0,2.2,0.3,2.8,1c0.5,0.5,0.9,1.2,1.1,2.1h0.1
	c0.2-0.5,0.4-1,0.7-1.5c0.3-0.5,0.8-0.8,1.4-1.1c0.6-0.3,1.3-0.4,2.2-0.4c1,0,1.8,0.2,2.4,0.6c0.6,0.4,1,1,1.3,1.7s0.4,1.7,0.4,2.7
	L121.4,53.4L121.4,53.4z M134.5,53.4h-2.6l0.1-2.7h-0.1c-0.1,0.5-0.4,1-0.7,1.5c-0.3,0.5-0.8,0.8-1.4,1.1c-0.6,0.3-1.4,0.4-2.3,0.4
	c-1.3,0-2.3-0.3-3-1s-1-1.6-1-2.8v-0.4c0-1.3,0.4-2.2,1.2-2.8c0.8-0.6,2-1,3.7-1.3l3.7-0.5c0-1-0.3-1.7-0.8-2.2
	c-0.5-0.5-1.4-0.7-2.5-0.7c-0.9,0-1.8,0.1-2.6,0.4c-0.8,0.3-1.5,0.6-2.2,0.9l0.2-2.2c0.4-0.2,0.8-0.4,1.3-0.6c0.5-0.2,1-0.4,1.7-0.5
	c0.6-0.1,1.3-0.2,2-0.2c1,0,1.9,0.1,2.5,0.4s1.3,0.6,1.7,1c0.4,0.5,0.7,1,0.9,1.6c0.2,0.6,0.3,1.3,0.3,2.1L134.5,53.4L134.5,53.4z
	 M144.6,42.5c-0.3,0-0.6-0.1-0.9-0.1c-1,0-1.8,0.2-2.5,0.7c-0.6,0.5-1.1,1.1-1.4,1.9v8.3h-2.7V40.1h2.6l-0.1,3.2h0.1
	c0.3-1.1,0.8-1.9,1.4-2.5c0.7-0.6,1.6-0.9,2.7-0.9c0.3,0,0.5,0,0.7,0.1c0.2,0,0.4,0.1,0.6,0.1l0.2,2.6
	C145.1,42.6,144.9,42.5,144.6,42.5z M145.7,13.7h2.6l-0.1,3.2h0.1c0.3-1.1,0.7-1.9,1.4-2.5s1.6-0.9,2.7-0.9c0.3,0,0.5,0,0.7,0.1
	c0.2,0,0.4,0.1,0.6,0.1l0.2,2.6c-0.2-0.1-0.5-0.1-0.7-0.2c-0.3,0-0.6-0.1-0.9-0.1c-1,0-1.8,0.2-2.5,0.7c-0.6,0.5-1.1,1.1-1.4,1.9V27
	h-2.7L145.7,13.7L145.7,13.7z M158.7,47.7c0,1.9-0.4,3.4-1.3,4.4c-0.8,1-2.1,1.5-3.7,1.5c-0.8,0-1.5-0.1-2-0.4
	c-0.6-0.2-1-0.6-1.4-1.1c-0.4-0.5-0.6-1-0.8-1.6h-0.1l0.1,2.7h-2.7v-18h2.6v4.2l-0.1,3.2h0.1c0.2-0.6,0.4-1.1,0.7-1.5
	c0.3-0.5,0.8-0.8,1.4-1.1c0.6-0.3,1.3-0.4,2.2-0.4c1.6,0,2.8,0.5,3.6,1.5c0.8,1,1.2,2.5,1.2,4.4L158.7,47.7L158.7,47.7z M160.3,13.7
	h2.7l-0.1,2.7h0.1c0.2-0.6,0.4-1.1,0.7-1.5c0.3-0.5,0.8-0.8,1.4-1.1c0.6-0.3,1.3-0.4,2.2-0.4c1.6,0,2.8,0.5,3.6,1.5
	c0.8,1,1.2,2.5,1.2,4.4v2.1c0,1.9-0.4,3.4-1.2,4.4c-0.8,1-2.1,1.5-3.7,1.5c-0.8,0-1.5-0.1-2-0.4c-0.6-0.2-1-0.6-1.4-1.1
	c-0.4-0.5-0.6-1-0.8-1.6h-0.1l0.1,3.2v4.2h-2.6L160.3,13.7L160.3,13.7z M166.9,53.7c-2.1,0-3.7-0.5-4.7-1.5c-1.1-1-1.6-2.5-1.6-4.4
	v-2.2c0-1.9,0.5-3.3,1.5-4.4c1-1,2.4-1.5,4.3-1.5c1.3,0,2.3,0.2,3.2,0.7c0.8,0.5,1.5,1.1,1.9,2c0.4,0.9,0.6,1.9,0.6,3v0.5
	c0,0.3,0,0.6,0,0.9c0,0.3-0.1,0.6-0.1,0.9h-0.5h-1.9h-6.3v0.3c0,0.5,0.1,1,0.2,1.4c0.1,0.4,0.4,0.8,0.7,1.1c0.3,0.3,0.8,0.5,1.3,0.7
	c0.5,0.2,1.2,0.2,1.9,0.2c0.8,0,1.6-0.1,2.4-0.3c0.7-0.2,1.4-0.5,2.1-0.9l-0.2,2.3c-0.6,0.4-1.3,0.6-2.1,0.9
	C168.7,53.6,167.8,53.7,166.9,53.7z M177.3,49.8V51v2.7c0,0.9-0.1,1.7-0.4,2.4c-0.3,0.7-0.7,1.2-1.3,1.5s-1.4,0.5-2.4,0.5
	c-0.4,0-0.8,0-1.1-0.1c-0.3-0.1-0.6-0.1-0.9-0.2l-0.2-2.2c0.2,0.1,0.5,0.2,0.7,0.2c0.3,0.1,0.5,0.1,0.8,0.1c0.8,0,1.3-0.2,1.6-0.6
	c0.3-0.4,0.4-1,0.4-1.8V51v-1.2v-9.7h2.7L177.3,49.8L177.3,49.8z M177.5,36.6c0,0.5-0.1,0.9-0.4,1.1c-0.3,0.3-0.6,0.4-1.2,0.4
	c-0.5,0-0.9-0.1-1.2-0.4c-0.3-0.3-0.4-0.6-0.4-1.1v-0.1c0-0.5,0.1-0.8,0.4-1.1c0.3-0.3,0.6-0.4,1.2-0.4c0.5,0,0.9,0.1,1.2,0.4
	C177.4,35.7,177.5,36.1,177.5,36.6L177.5,36.6z M174.7,26.3c-0.7-0.6-1-1.6-1-2.8v-0.4c0-1.3,0.4-2.2,1.2-2.8c0.8-0.6,2-1,3.7-1.3
	l3.7-0.5c0-1-0.3-1.7-0.8-2.2c-0.5-0.5-1.4-0.7-2.5-0.7c-0.9,0-1.8,0.1-2.6,0.4c-0.8,0.3-1.5,0.6-2.2,0.9l0.2-2.2
	c0.4-0.2,0.8-0.4,1.3-0.6c0.5-0.2,1-0.4,1.7-0.5c0.6-0.1,1.3-0.2,2-0.2c1,0,1.8,0.1,2.5,0.4c0.7,0.2,1.3,0.6,1.7,1
	c0.4,0.5,0.7,1,0.9,1.6c0.2,0.6,0.3,1.3,0.3,2.1V27h-2.6l0.1-2.7h-0.1c-0.1,0.5-0.4,1-0.7,1.5c-0.3,0.5-0.8,0.8-1.4,1.1
	c-0.6,0.3-1.4,0.4-2.3,0.4C176.4,27.3,175.4,27,174.7,26.3z M191.5,53.4h-2.7l0.1-2.7h-0.1c-0.1,0.6-0.4,1.1-0.7,1.5
	s-0.8,0.8-1.4,1.1c-0.6,0.3-1.3,0.4-2.2,0.4c-1.6,0-2.8-0.5-3.6-1.5c-0.8-1-1.2-2.5-1.2-4.4v-2.1c0-1.9,0.4-3.4,1.3-4.4
	c0.8-1,2.1-1.5,3.7-1.5c0.8,0,1.5,0.1,2,0.4c0.6,0.2,1,0.6,1.4,1.1c0.4,0.5,0.6,1,0.8,1.6h0.1l-0.1-3.2v-4.2h2.6L191.5,53.4
	L191.5,53.4z M205.3,45.9c0,0.3,0,0.6,0,0.9c0,0.3-0.1,0.6-0.1,0.9h-0.5h-1.9h-6.3v0.3c0,0.5,0.1,1,0.2,1.4c0.1,0.4,0.4,0.8,0.7,1.1
	c0.3,0.3,0.8,0.5,1.3,0.7c0.5,0.2,1.2,0.2,1.9,0.2c0.8,0,1.6-0.1,2.4-0.3c0.7-0.2,1.4-0.5,2.1-0.9l-0.2,2.3
	c-0.6,0.4-1.3,0.6-2.1,0.9c-0.8,0.2-1.7,0.3-2.6,0.3c-2.1,0-3.7-0.5-4.7-1.5c-1.1-1-1.6-2.5-1.6-4.4v-2.2c0-1.9,0.5-3.3,1.5-4.4
	c1-1,2.4-1.5,4.3-1.5c1.3,0,2.3,0.2,3.2,0.7c0.8,0.5,1.5,1.1,1.9,2c0.4,0.9,0.6,1.9,0.6,3V45.9z"/>
<path fill="#FFFFFF" d="M179.4,11c0.4,0,0.7-0.1,0.8-0.3c0.2-0.2,0.3-0.4,0.3-0.7v0c0-0.3-0.1-0.6-0.3-0.7c-0.2-0.2-0.5-0.3-0.8-0.3
	c-0.4,0-0.6,0.1-0.8,0.3c-0.2,0.2-0.3,0.4-0.3,0.7v0c0,0.3,0.1,0.6,0.3,0.7C178.8,11,179.1,11,179.4,11z"/>
<path fill="#FFFFFF" d="M140.9,18.9c0-0.7-0.1-1.4-0.4-1.9c-0.2-0.5-0.6-0.9-1.1-1.2c-0.5-0.3-1.1-0.4-1.8-0.4
	c-1.1,0-1.8,0.3-2.4,0.9c-0.5,0.6-0.8,1.5-0.8,2.6v0.4h6.3C140.9,19.3,140.9,19.1,140.9,18.9z"/>
<path fill="#FFFFFF" d="M202.7,45.3c0-0.7-0.1-1.4-0.4-1.9c-0.2-0.5-0.6-0.9-1.1-1.2c-0.5-0.3-1.1-0.4-1.8-0.4
	c-1.1,0-1.8,0.3-2.4,0.9c-0.5,0.6-0.8,1.5-0.8,2.6v0.4h6.3C202.7,45.6,202.7,45.4,202.7,45.3z"/>
<path fill="#C1201F" d="M80.6,17h-0.8v2.1h0.8V17z"/>
<path fill="#C1201F" d="M80.6,24.8h-0.8V27h0.8V24.8z"/>
<path fill="#C1201F" d="M79.8,24.8h0.8v-5.6h-0.8V17h0.8v-5.2h-0.9V9.6h-1.8V27h1.9V24.8z"/>
<path fill="#C1201F" d="M80.6,9.6h-0.9v2.2h0.9V9.6z"/>
<path fill="#C1201F" d="M84.9,11.9c1.1,0,1.8,0.2,2.2,0.6c0.4,0.4,0.6,1,0.6,1.8v0.2c0,0.8-0.2,1.4-0.7,1.8
	c-0.4,0.4-1.2,0.7-2.2,0.7h-4.3v2.1h4.3c1.2,0,2,0.2,2.4,0.7c0.5,0.4,0.7,1.1,0.7,1.9v0.4c0,0.8-0.2,1.4-0.7,1.9
	c-0.5,0.5-1.2,0.7-2.3,0.7h-4.4V27h4.7c1.9,0,3.3-0.4,4.2-1.2c0.9-0.8,1.3-2,1.3-3.5v-0.5c0-1.2-0.3-2.1-0.8-2.8
	c-0.5-0.7-1.4-1.1-2.5-1.3v-0.1c1-0.1,1.7-0.5,2.2-1.1c0.5-0.6,0.7-1.4,0.7-2.4v-0.2c0-1.4-0.4-2.4-1.2-3.1C88.4,10,87,9.6,85.1,9.6
	h-4.5v2.2H84.9z"/>
<path fill="#C1201F" d="M97.8,25.4l-0.3,1H99L97.8,25.4z"/>
<path fill="#C1201F" d="M99.4,24.7h-1.2L98,25.3L99.4,24.7z"/>
<path fill="#C1201F" d="M97.5,26.4l0.3-1l1.2,1H97.5l-1.8,5.2h2.7l6-18h-2.7l-3.5,10.9h1.2L98,25.3l0.2-0.6h-0.3l-3.3-10.9h-2.7
	L96,26.4H97.5z"/>
<path fill="#C1201F" d="M110.5,22.9l-1,0c-0.1,0-0.1,0-0.2,0c0.6,0.1,1.2,0.2,1.8,0.2c1.8,0,3.2-0.4,4.2-1.1
	c0.9-0.7,1.4-1.8,1.4-3.2v-0.2c0-0.6-0.1-1.1-0.3-1.5c-0.2-0.4-0.4-0.8-0.8-1.1c-0.3-0.3-0.8-0.5-1.3-0.6v-0.2l3.7,0.2v-2.1
	l-6.9,0.2c-1.4,0-2.5,0.3-3.4,0.6s-1.5,0.9-1.9,1.6c-0.4,0.7-0.6,1.5-0.6,2.4v0.2c0,1.5,0.5,2.6,1.5,3.4c0.3,0.2,0.6,0.4,0.9,0.6
	v-0.2L110.5,22.9z M107.9,18.1c0-0.6,0.1-1,0.3-1.4c0.2-0.4,0.6-0.7,1-0.9c0.5-0.2,1.1-0.3,1.8-0.3h0.1c0.7,0,1.3,0.1,1.7,0.3
	c0.5,0.2,0.8,0.5,1,0.9c0.2,0.4,0.3,0.9,0.3,1.5v0.2c0,0.6-0.1,1.1-0.4,1.5c-0.2,0.4-0.6,0.7-1,0.9c-0.5,0.2-1,0.3-1.7,0.3
	c-0.7,0-1.3-0.1-1.8-0.3c-0.5-0.2-0.8-0.5-1.1-0.9c-0.2-0.4-0.4-0.9-0.4-1.5L107.9,18.1L107.9,18.1z"/>
<path fill="#C1201F" d="M107.7,31.8c0.9,0.2,1.9,0.3,3.1,0.3h0.4c1.3,0,2.4-0.1,3.3-0.4c0.9-0.3,1.6-0.7,2.1-1.2
	c0.5-0.5,0.7-1.2,0.7-2.1v-0.1c0-1.1-0.3-1.9-1-2.5c-0.7-0.5-1.7-0.9-3.1-1l-3.2-0.4c-0.7-0.1-1.2-0.2-1.5-0.3
	c-0.3-0.1-0.5-0.3-0.5-0.6v0c0-0.2,0.1-0.4,0.3-0.5c0.2-0.1,0.5-0.2,0.9-0.2c-0.6-0.1-1.1-0.3-1.6-0.5v0.1c-0.5,0-0.9,0.1-1.2,0.3
	c-0.3,0.2-0.5,0.3-0.7,0.6c-0.2,0.2-0.2,0.5-0.2,0.9v0c0,0.5,0.2,0.9,0.5,1.2c0.3,0.3,0.8,0.5,1.5,0.7v0.1c-0.5,0.1-0.9,0.2-1.3,0.4
	c-0.4,0.2-0.7,0.5-0.9,0.9c-0.2,0.4-0.3,0.8-0.3,1.3v0.1c0,0.8,0.2,1.4,0.7,1.9C106.1,31.3,106.8,31.6,107.7,31.8z M107.4,28.3
	c0-0.4,0.1-0.6,0.3-0.9c0.2-0.2,0.4-0.4,0.8-0.6c0.3-0.1,0.5-0.2,0.9-0.3l-0.4,0l0.7,0c-0.1,0-0.2,0-0.3,0.1l3.4,0.3
	c0.8,0.1,1.4,0.2,1.7,0.5c0.3,0.2,0.5,0.6,0.5,1v0c0,0.4-0.1,0.7-0.4,0.9c-0.3,0.2-0.7,0.4-1.2,0.5c-0.5,0.1-1.2,0.2-2,0.2H111
	c-0.7,0-1.4-0.1-1.9-0.2c-0.5-0.1-0.9-0.3-1.2-0.5C107.5,29,107.4,28.7,107.4,28.3L107.4,28.3L107.4,28.3z"/>
<path fill="#C1201F" d="M109.5,22.8l1,0l-2.8-0.7v0.2c0.5,0.2,1,0.4,1.6,0.5C109.4,22.8,109.4,22.8,109.5,22.8z"/>
<path fill="#C1201F" d="M108.9,26.5l0.4,0c0.1,0,0.2,0,0.3-0.1L108.9,26.5z"/>
<path fill="#C1201F" d="M123.9,22.9l-1,0c-0.1,0-0.1,0-0.2,0c0.6,0.1,1.2,0.2,1.8,0.2c1.8,0,3.2-0.4,4.2-1.1
	c0.9-0.7,1.4-1.8,1.4-3.2v-0.2c0-0.6-0.1-1.1-0.3-1.5c-0.2-0.4-0.4-0.8-0.8-1.1c-0.3-0.3-0.8-0.5-1.3-0.6v-0.2l3.7,0.2v-2.1
	l-6.9,0.2c-1.4,0-2.5,0.3-3.4,0.6c-0.9,0.4-1.5,0.9-1.9,1.6c-0.4,0.7-0.6,1.5-0.6,2.4v0.2c0,1.5,0.5,2.6,1.5,3.4
	c0.3,0.2,0.6,0.4,0.9,0.6v-0.2L123.9,22.9z M121.3,18.1c0-0.6,0.1-1,0.3-1.4c0.2-0.4,0.6-0.7,1-0.9c0.5-0.2,1.1-0.3,1.8-0.3h0.1
	c0.7,0,1.3,0.1,1.7,0.3c0.5,0.2,0.8,0.5,1,0.9c0.2,0.4,0.3,0.9,0.3,1.5v0.2c0,0.6-0.1,1.1-0.4,1.5c-0.2,0.4-0.6,0.7-1.1,0.9
	c-0.5,0.2-1,0.3-1.7,0.3c-0.7,0-1.3-0.1-1.8-0.3c-0.5-0.2-0.8-0.5-1.1-0.9c-0.2-0.4-0.4-0.9-0.4-1.5L121.3,18.1L121.3,18.1z"/>
<path fill="#C1201F" d="M122.3,26.5l0.4,0c0.1,0,0.2,0,0.3-0.1L122.3,26.5z"/>
<path fill="#C1201F" d="M121.1,31.8c0.9,0.2,1.9,0.3,3.1,0.3h0.4c1.3,0,2.4-0.1,3.3-0.4c0.9-0.3,1.6-0.7,2.1-1.2
	c0.5-0.5,0.7-1.2,0.7-2.1v-0.1c0-1.1-0.3-1.9-1-2.5c-0.7-0.5-1.7-0.9-3.1-1l-3.2-0.4c-0.7-0.1-1.2-0.2-1.5-0.3
	c-0.3-0.1-0.4-0.3-0.4-0.6v0c0-0.2,0.1-0.4,0.3-0.5c0.2-0.1,0.5-0.2,0.9-0.2c-0.6-0.1-1.1-0.3-1.6-0.5v0.1c-0.5,0-0.9,0.1-1.2,0.3
	c-0.3,0.2-0.5,0.3-0.7,0.6s-0.2,0.5-0.2,0.9v0c0,0.5,0.2,0.9,0.5,1.2c0.3,0.3,0.8,0.5,1.5,0.7v0.1c-0.5,0.1-0.9,0.2-1.3,0.4
	c-0.4,0.2-0.7,0.5-0.9,0.9c-0.2,0.4-0.3,0.8-0.3,1.3v0.1c0,0.8,0.2,1.4,0.7,1.9C119.5,31.3,120.2,31.6,121.1,31.8z M120.8,28.3
	c0-0.4,0.1-0.6,0.3-0.9c0.2-0.2,0.4-0.4,0.8-0.6c0.3-0.1,0.5-0.2,0.9-0.3l-0.4,0l0.7,0c-0.1,0-0.2,0-0.3,0.1l3.4,0.3
	c0.8,0.1,1.4,0.2,1.7,0.5c0.3,0.2,0.5,0.6,0.5,1v0c0,0.4-0.1,0.7-0.4,0.9c-0.3,0.2-0.7,0.4-1.2,0.5c-0.5,0.1-1.2,0.2-2,0.2h-0.3
	c-0.8,0-1.4-0.1-1.9-0.2c-0.5-0.1-0.9-0.3-1.2-0.5C120.9,29,120.8,28.7,120.8,28.3L120.8,28.3L120.8,28.3z"/>
<path fill="#C1201F" d="M122.9,22.8l1,0l-2.8-0.7v0.2c0.5,0.2,1,0.4,1.6,0.5C122.8,22.8,122.8,22.8,122.9,22.8z"/>
<path fill="#C1201F" d="M140.9,19.4h-6.3v0.8l0,0.3v0.9h6.3c0-0.5,0-0.9,0-1.3C140.9,19.8,140.9,19.6,140.9,19.4z"/>
<path fill="#C1201F" d="M134.6,20.2v-0.8h-1.2v2h1.2v-0.9L134.6,20.2z"/>
<path fill="#C1201F" d="M140.9,19.4c0,0.2,0,0.4,0,0.7c0,0.4,0,0.9,0,1.3h1.9v-2H140.9z"/>
<path fill="#C1201F" d="M138.3,27.3c1,0,1.8-0.1,2.6-0.3c0.8-0.2,1.5-0.5,2.1-0.9l0.2-2.3c-0.7,0.4-1.4,0.7-2.1,0.9
	c-0.7,0.2-1.5,0.3-2.4,0.3c-0.8,0-1.4-0.1-1.9-0.2c-0.5-0.2-0.9-0.4-1.3-0.7c-0.3-0.3-0.6-0.6-0.7-1.1c-0.2-0.4-0.2-0.9-0.2-1.4
	v-0.3h-1.2v-2h1.2V19c0-1.1,0.3-2,0.8-2.6s1.3-0.9,2.4-0.9c0.7,0,1.3,0.1,1.8,0.4c0.5,0.3,0.8,0.7,1.1,1.2c0.2,0.5,0.4,1.1,0.4,1.9
	c0,0.2,0,0.3,0,0.5h1.9v2h0.5c0-0.3,0.1-0.6,0.1-0.9c0-0.3,0-0.6,0-0.9v-0.5c0-1.2-0.2-2.2-0.6-3c-0.4-0.9-1.1-1.5-1.9-2
	c-0.8-0.5-1.9-0.7-3.2-0.7c-1.9,0-3.3,0.5-4.3,1.5c-1,1-1.5,2.5-1.5,4.4v2.2c0,1.9,0.5,3.4,1.6,4.4
	C134.6,26.8,136.2,27.3,138.3,27.3z"/>
<path fill="#C1201F" d="M148.3,17.8v0.9c0.3-0.8,0.8-1.4,1.4-1.9c0.7-0.5,1.5-0.7,2.5-0.7c0.3,0,0.6,0,0.9,0.1
	c0.3,0,0.5,0.1,0.7,0.2l-0.2-2.6c-0.2-0.1-0.4-0.1-0.6-0.1c-0.2,0-0.5-0.1-0.7-0.1c-1.1,0-2,0.3-2.7,0.9c-0.7,0.6-1.1,1.4-1.4,2.5
	h-0.1l0,0.7L148.3,17.8z"/>
<path fill="#C1201F" d="M148.3,18.7c0,0.1-0.1,0.2-0.1,0.3l-0.6-2.1h0.5l0.1-3.2h-2.6V27h2.7V18.7z"/>
<path fill="#C1201F" d="M148.2,19c0-0.1,0.1-0.2,0.1-0.3v-0.9l-0.2-0.2l0-0.7h-0.5L148.2,19z"/>
<path fill="#C1201F" d="M162.9,27.5l-0.1-3.2h-0.7l0.7-2.5v-3.6c0,0,0,0.1,0,0.1l-0.6-1.8h0.6l0.1-2.7h-2.7v18h2.6V27.5z"/>
<path fill="#C1201F" d="M162.9,23.2v-1.4l-0.7,2.5h0.7l0-0.6L162.9,23.2z"/>
<path fill="#C1201F" d="M162.9,17.6v0.5c0.1-0.5,0.3-0.9,0.6-1.2c0.3-0.4,0.7-0.7,1.2-1c0.5-0.2,1-0.4,1.6-0.4c1,0,1.8,0.3,2.4,0.9
	c0.5,0.6,0.8,1.4,0.8,2.6v2.5c0,1.2-0.3,2-0.8,2.6c-0.5,0.6-1.3,0.9-2.3,0.9c-0.7,0-1.3-0.1-1.8-0.4c-0.5-0.2-0.9-0.6-1.2-1.1
	c-0.3-0.5-0.4-1.1-0.5-1.9v1.4l0,0.5l0,0.6h0.1c0.2,0.6,0.4,1.1,0.8,1.6c0.4,0.5,0.8,0.8,1.4,1.1c0.6,0.2,1.2,0.4,2,0.4
	c1.6,0,2.9-0.5,3.7-1.5c0.8-1,1.2-2.5,1.2-4.4v-2.1c0-1.9-0.4-3.4-1.2-4.4c-0.8-1-2-1.5-3.6-1.5c-0.9,0-1.6,0.1-2.2,0.4
	c-0.6,0.3-1,0.6-1.4,1.1c-0.3,0.5-0.6,1-0.7,1.5h-0.1l0,0.4L162.9,17.6z"/>
<path fill="#C1201F" d="M162.8,18.3c0,0,0-0.1,0-0.1v-0.5l0-0.8l0-0.4h-0.6L162.8,18.3z"/>
<path fill="#C1201F" d="M182.7,20.4l-0.4,0.1v2.2c0-0.1,0-0.1,0.1-0.2l0.4,1.8h-0.4l-0.1,2.7h2.6v-8.5c0-0.8-0.1-1.5-0.3-2.1
	c-0.2-0.6-0.5-1.2-0.9-1.6c-0.4-0.5-1-0.8-1.7-1c-0.7-0.2-1.5-0.4-2.5-0.4c-0.7,0-1.4,0.1-2,0.2c-0.6,0.1-1.2,0.3-1.7,0.5
	c-0.5,0.2-0.9,0.4-1.3,0.6l-0.2,2.2c0.6-0.3,1.4-0.6,2.2-0.9c0.8-0.3,1.7-0.4,2.6-0.4c1.1,0,2,0.2,2.5,0.7c0.5,0.5,0.8,1.2,0.8,2.2
	l0.3,0L182.7,20.4z"/>
<path fill="#C1201F" d="M182.2,19.3v1.2l0.4-0.1l-0.1-1.9l-0.3,0c0,0,0,0,0,0.1L182.2,19.3z"/>
<path fill="#C1201F" d="M182.3,22.5c0,0.1,0,0.2-0.1,0.2v0.7l0.1,0.4l0,0.4h0.4L182.3,22.5z"/>
<path fill="#C1201F" d="M179.5,12.3c0.9,0,1.6-0.2,2-0.6c0.4-0.4,0.7-1,0.7-1.7V10c0-0.7-0.2-1.3-0.7-1.7c-0.4-0.4-1.1-0.6-2-0.6
	c-0.9,0-1.6,0.2-2,0.6c-0.4,0.4-0.7,1-0.7,1.7v0.1c0,0.7,0.2,1.2,0.7,1.7C177.9,12.1,178.5,12.3,179.5,12.3z M178.3,10
	c0-0.3,0.1-0.6,0.3-0.7c0.2-0.2,0.5-0.3,0.8-0.3s0.7,0.1,0.8,0.3s0.3,0.4,0.3,0.7v0c0,0.3-0.1,0.6-0.3,0.7c-0.2,0.2-0.5,0.3-0.8,0.3
	s-0.7-0.1-0.8-0.3C178.4,10.6,178.3,10.4,178.3,10L178.3,10z"/>
<path fill="#C1201F" d="M181.5,25.8c0.3-0.5,0.6-1,0.7-1.5h0.1l0-0.4l-0.1-0.4v-0.7c-0.1,0.4-0.3,0.8-0.6,1.1
	c-0.3,0.4-0.7,0.7-1.2,0.9c-0.5,0.2-1.1,0.4-1.8,0.4c-0.8,0-1.3-0.2-1.7-0.5c-0.4-0.3-0.6-0.8-0.6-1.4V23c0-0.6,0.2-1.1,0.6-1.4
	c0.4-0.3,1-0.5,2-0.7l3.4-0.5v-1.2l0-0.7c0,0,0,0,0-0.1l-3.7,0.5c-1.7,0.2-2.9,0.7-3.7,1.3c-0.8,0.6-1.2,1.6-1.2,2.8v0.4
	c0,1.2,0.3,2.1,1,2.8c0.7,0.6,1.7,1,3,1c0.9,0,1.7-0.1,2.3-0.4C180.7,26.6,181.1,26.2,181.5,25.8z"/>
<path fill="#C1201F" d="M85.4,46.4c-0.7-0.3-1.6-0.6-2.7-0.8c-0.8-0.2-1.5-0.4-1.9-0.6c-0.5-0.2-0.8-0.4-1-0.7
	c-0.2-0.2-0.3-0.5-0.3-0.9v-0.1c0-0.3,0.1-0.6,0.3-0.8c0.2-0.2,0.4-0.4,0.8-0.5c0.4-0.1,0.9-0.2,1.5-0.2c0.9,0,1.8,0.1,2.6,0.3
	c0.8,0.2,1.5,0.5,2.1,0.8l-0.2-2.2c-0.5-0.3-1.1-0.6-1.9-0.8c-0.8-0.2-1.7-0.3-2.7-0.3c-1.7,0-2.9,0.3-3.7,0.9
	c-0.8,0.6-1.2,1.5-1.2,2.7v0.1c0,0.7,0.1,1.3,0.4,1.8c0.3,0.5,0.7,0.9,1.4,1.3c0.6,0.3,1.5,0.6,2.6,0.9c0.9,0.2,1.6,0.4,2.1,0.6
	c0.5,0.2,0.8,0.4,1,0.6c0.2,0.2,0.3,0.5,0.3,0.9v0.1c0,0.6-0.2,1-0.7,1.3c-0.5,0.3-1.2,0.4-2.1,0.4c-1,0-1.9-0.1-2.7-0.4
	c-0.8-0.2-1.5-0.5-2.2-0.9l0.2,2.4c0.5,0.3,1.2,0.5,2,0.7c0.8,0.2,1.7,0.3,2.8,0.3c1.8,0,3.1-0.3,4-1c0.9-0.7,1.3-1.6,1.3-2.9v-0.2
	c0-0.8-0.1-1.4-0.4-1.9C86.5,47.2,86.1,46.8,85.4,46.4z"/>
<path fill="#C1201F" d="M97.1,45.6v1.2l0.4-0.1l-0.1-1.9l-0.3,0c0,0,0,0,0,0.1L97.1,45.6z"/>
<path fill="#C1201F" d="M97.1,49.8v-0.7c-0.1,0.4-0.3,0.8-0.6,1.1c-0.3,0.4-0.7,0.7-1.2,0.9c-0.5,0.2-1.1,0.4-1.8,0.4
	c-0.8,0-1.3-0.2-1.7-0.5c-0.4-0.3-0.6-0.8-0.6-1.4v-0.2c0-0.6,0.2-1.1,0.6-1.4c0.4-0.3,1-0.5,2-0.7l3.4-0.5v-1.2l0-0.7
	c0,0,0,0,0-0.1l-3.7,0.5c-1.7,0.2-2.9,0.7-3.7,1.3s-1.2,1.6-1.2,2.8v0.4c0,1.2,0.3,2.1,1,2.8s1.7,1,3,1c0.9,0,1.7-0.1,2.3-0.4
	c0.6-0.3,1.1-0.7,1.4-1.1c0.3-0.5,0.6-1,0.7-1.5h0.1l0-0.4L97.1,49.8z"/>
<path fill="#C1201F" d="M97.1,48.8c0,0.1,0,0.2-0.1,0.2v0.7l0.1,0.4l0,0.4h0.4L97.1,48.8z"/>
<path fill="#C1201F" d="M98.5,41.1c-0.4-0.5-1-0.8-1.7-1c-0.7-0.2-1.5-0.4-2.5-0.4c-0.7,0-1.4,0.1-2,0.2c-0.6,0.1-1.2,0.3-1.7,0.5
	c-0.5,0.2-0.9,0.4-1.3,0.6l-0.2,2.2c0.6-0.3,1.4-0.6,2.2-0.9c0.8-0.3,1.7-0.4,2.6-0.4c1.1,0,2,0.2,2.5,0.7c0.5,0.5,0.8,1.2,0.8,2.2
	l0.3,0l0.1,1.9l-0.4,0.1v2.2c0-0.1,0-0.1,0.1-0.2l0.4,1.8h-0.4l-0.1,2.7h2.6v-8.5c0-0.8-0.1-1.5-0.3-2.1
	C99.2,42.1,98.9,41.6,98.5,41.1z"/>
<path fill="#C1201F" d="M113.1,43.5c0-0.2-0.1-0.5-0.1-0.7h-0.2l0.4,1.8c0-0.1,0.1-0.2,0.1-0.3c0-0.1,0-0.2,0-0.3
	C113.1,43.8,113.1,43.7,113.1,43.5z"/>
<path fill="#C1201F" d="M112.8,42.8h0.2c-0.2-0.9-0.6-1.6-1.1-2.1c-0.6-0.6-1.6-1-2.8-1c-0.8,0-1.5,0.1-2,0.4
	c-0.6,0.3-1,0.6-1.3,1.1c-0.3,0.5-0.6,1-0.7,1.5h-0.1l0,0.4l0.1,0.2v1c0.1-0.4,0.3-0.7,0.5-1c0.3-0.4,0.6-0.7,1-1
	c0.4-0.2,0.9-0.4,1.5-0.4c0.6,0,1.1,0.1,1.5,0.4c0.4,0.3,0.6,0.6,0.8,1.1c0.2,0.5,0.2,1,0.2,1.6v8.3h2.6v-8.6c0-0.1,0-0.2,0-0.3
	c0,0.1-0.1,0.2-0.1,0.3L112.8,42.8z"/>
<path fill="#C1201F" d="M104.9,43.2l0-0.4h-0.4l0.4,1.8c0-0.1,0.1-0.2,0.1-0.3v-1L104.9,43.2z"/>
<path fill="#C1201F" d="M104.4,42.8h0.4l0.1-2.7h-2.7v13.3h2.7v-9.1c0,0.1-0.1,0.2-0.1,0.3L104.4,42.8z"/>
<path fill="#C1201F" d="M119.7,40.3c-0.6-0.4-1.4-0.6-2.4-0.6c-0.9,0-1.6,0.1-2.2,0.4c-0.6,0.3-1,0.7-1.4,1.1
	c-0.3,0.5-0.6,1-0.7,1.5h-0.1c0.1,0.2,0.1,0.5,0.1,0.7c0,0.2,0.1,0.4,0.1,0.6c0,0.1,0,0.2,0,0.3c0.1-0.4,0.3-0.8,0.5-1.1
	c0.3-0.4,0.6-0.7,1-1c0.4-0.2,0.9-0.4,1.5-0.4c0.6,0,1.1,0.1,1.5,0.4c0.4,0.3,0.6,0.6,0.8,1.1c0.2,0.5,0.2,1,0.2,1.6v8.3h2.7v-8.6
	c0-1.1-0.1-2-0.4-2.7C120.7,41.3,120.3,40.7,119.7,40.3z"/>
<path fill="#C1201F" d="M131.9,49.8v-0.7c-0.1,0.4-0.3,0.8-0.6,1.1c-0.3,0.4-0.7,0.7-1.2,0.9c-0.5,0.2-1.1,0.4-1.8,0.4
	c-0.8,0-1.3-0.2-1.7-0.5c-0.4-0.3-0.6-0.8-0.6-1.4v-0.2c0-0.6,0.2-1.1,0.6-1.4c0.4-0.3,1-0.5,2-0.7l3.4-0.5v-1.2l0-0.7
	c0,0,0,0,0-0.1l-3.7,0.5c-1.7,0.2-2.9,0.7-3.7,1.3s-1.2,1.6-1.2,2.8v0.4c0,1.2,0.3,2.1,1,2.8s1.7,1,3,1c0.9,0,1.7-0.1,2.3-0.4
	c0.6-0.3,1.1-0.7,1.4-1.1c0.3-0.5,0.6-1,0.7-1.5h0.1l0-0.4L131.9,49.8z"/>
<path fill="#C1201F" d="M132,48.8c0,0.1,0,0.2-0.1,0.2v0.7l0.1,0.4l0,0.4h0.4L132,48.8z"/>
<path fill="#C1201F" d="M131.9,45.6v1.2l0.4-0.1l-0.1-1.9l-0.3,0c0,0,0,0,0,0.1L131.9,45.6z"/>
<path fill="#C1201F" d="M133.3,41.1c-0.4-0.5-1-0.8-1.7-1s-1.5-0.4-2.5-0.4c-0.7,0-1.4,0.1-2,0.2c-0.6,0.1-1.2,0.3-1.7,0.5
	c-0.5,0.2-0.9,0.4-1.3,0.6l-0.2,2.2c0.6-0.3,1.4-0.6,2.2-0.9c0.8-0.3,1.7-0.4,2.6-0.4c1.1,0,2,0.2,2.5,0.7c0.5,0.5,0.8,1.2,0.8,2.2
	l0.3,0l0.2,1.9l-0.4,0.1v2.2c0-0.1,0-0.1,0.1-0.2l0.4,1.8H132l-0.1,2.7h2.6v-8.5c0-0.8-0.1-1.5-0.3-2.1
	C134,42.1,133.7,41.6,133.3,41.1z"/>
<path fill="#C1201F" d="M144.6,39.9c-0.2,0-0.5-0.1-0.7-0.1c-1.1,0-2,0.3-2.7,0.9c-0.7,0.6-1.1,1.4-1.4,2.5h-0.1l0,0.7l0.2,0.2v0.9
	c0.3-0.8,0.8-1.4,1.4-1.9c0.7-0.5,1.5-0.7,2.5-0.7c0.3,0,0.6,0,0.9,0.1s0.5,0.1,0.7,0.2l-0.2-2.6C145,40,144.8,40,144.6,39.9z"/>
<path fill="#C1201F" d="M139.1,43.2h0.5l0.1-3.2h-2.6v13.3h2.7v-8.3c0,0.1-0.1,0.2-0.1,0.3L139.1,43.2z"/>
<path fill="#C1201F" d="M139.6,43.9l0-0.7h-0.5l0.6,2.1c0-0.1,0.1-0.2,0.1-0.3v-0.9L139.6,43.9z"/>
<path fill="#C1201F" d="M153.8,39.8c-0.9,0-1.6,0.1-2.2,0.4c-0.6,0.3-1,0.6-1.4,1.1c-0.3,0.5-0.6,1-0.7,1.5h-0.1l0,0.6l0,0.5v0.6
	c0.1-0.5,0.3-0.9,0.6-1.2c0.3-0.4,0.7-0.7,1.2-1c0.5-0.2,1-0.4,1.7-0.4c1,0,1.8,0.3,2.3,0.9c0.5,0.6,0.8,1.5,0.8,2.6v2.5
	c0,1.2-0.3,2.1-0.8,2.7c-0.5,0.6-1.3,0.9-2.3,0.9c-0.7,0-1.2-0.1-1.8-0.4c-0.5-0.2-0.9-0.6-1.2-1.1c-0.3-0.5-0.5-1.1-0.5-1.9v1.3
	l0,0.8l0,0.4h0.1c0.2,0.6,0.4,1.1,0.8,1.6c0.4,0.5,0.8,0.8,1.4,1.1c0.6,0.2,1.2,0.4,2,0.4c1.6,0,2.9-0.5,3.7-1.5
	c0.8-1,1.3-2.5,1.3-4.4v-2.1c0-1.9-0.4-3.4-1.2-4.4C156.6,40.3,155.4,39.8,153.8,39.8z"/>
<path fill="#C1201F" d="M149.4,48.1v-3.6c0,0,0,0.1,0,0.1l-0.6-1.8h0.6l0.1-3.2v-4.2h-2.6v18h2.7l-0.1-2.7h-0.7L149.4,48.1z"/>
<path fill="#C1201F" d="M149.4,49.4v-1.3l-0.8,2.5h0.7l0-0.4L149.4,49.4z"/>
<path fill="#C1201F" d="M149.4,44.6c0,0,0-0.1,0-0.1v-0.6l0-0.5l0-0.6h-0.6L149.4,44.6z"/>
<path fill="#C1201F" d="M163.2,46.6v-0.8h-1.2v2h1.2v-0.9L163.2,46.6z"/>
<path fill="#C1201F" d="M169.5,45.8h-6.3v0.8l0,0.3v0.9h6.3c0-0.5,0-0.9,0-1.3C169.5,46.2,169.5,46,169.5,45.8z"/>
<path fill="#C1201F" d="M171.8,50.2c-0.7,0.4-1.4,0.7-2.1,0.9c-0.7,0.2-1.5,0.3-2.4,0.3c-0.8,0-1.4-0.1-1.9-0.2
	c-0.5-0.2-1-0.4-1.3-0.7c-0.3-0.3-0.6-0.6-0.7-1.1c-0.2-0.4-0.2-0.9-0.2-1.4v-0.3h-1.2v-2h1.2v-0.4c0-1.1,0.3-2,0.8-2.6
	c0.5-0.6,1.3-0.9,2.4-0.9c0.7,0,1.3,0.1,1.8,0.4c0.5,0.3,0.8,0.7,1.1,1.2c0.2,0.5,0.4,1.1,0.4,1.9c0,0.2,0,0.3,0,0.5h1.9v2h0.5
	c0-0.3,0.1-0.6,0.1-0.9c0-0.3,0-0.6,0-0.9v-0.5c0-1.2-0.2-2.2-0.6-3c-0.4-0.9-1.1-1.5-1.9-2c-0.8-0.5-1.9-0.7-3.2-0.7
	c-1.9,0-3.3,0.5-4.3,1.5c-1,1-1.5,2.5-1.5,4.4v2.2c0,1.9,0.5,3.4,1.6,4.4c1.1,1,2.6,1.5,4.7,1.5c1,0,1.8-0.1,2.6-0.3
	c0.8-0.2,1.5-0.5,2.1-0.9L171.8,50.2z"/>
<path fill="#C1201F" d="M169.5,45.8c0,0.2,0,0.4,0,0.7c0,0.4,0,0.9,0,1.3h1.9v-2H169.5z"/>
<path fill="#C1201F" d="M175.9,35c-0.5,0-0.9,0.1-1.2,0.4c-0.3,0.3-0.4,0.6-0.4,1.1v0.1c0,0.5,0.1,0.8,0.4,1.1
	c0.3,0.3,0.6,0.4,1.2,0.4c0.5,0,0.9-0.1,1.2-0.4c0.3-0.3,0.4-0.6,0.4-1.1v-0.1c0-0.5-0.1-0.8-0.4-1.1C176.9,35.2,176.5,35,175.9,35z
	"/>
<path fill="#C1201F" d="M177.3,40.1h-2.7v9.7h2.7V40.1z"/>
<path fill="#C1201F" d="M174.6,53.6c0,0.8-0.1,1.4-0.4,1.8c-0.3,0.4-0.8,0.6-1.6,0.6c-0.3,0-0.5,0-0.8-0.1c-0.3-0.1-0.5-0.1-0.7-0.2
	l0.2,2.2c0.2,0.1,0.5,0.2,0.9,0.2c0.3,0.1,0.7,0.1,1.1,0.1c1,0,1.8-0.2,2.4-0.5c0.6-0.4,1-0.9,1.3-1.5c0.3-0.7,0.4-1.5,0.4-2.4V51
	h-2.7L174.6,53.6L174.6,53.6z"/>
<path fill="#C1201F" d="M177.3,49.8h-2.7V51h2.7V49.8z"/>
<path fill="#C1201F" d="M188.8,39.6l0.1,3.2h0.7l-0.7,2.5v3.6c0,0,0-0.1,0-0.1l0.6,1.9h-0.6l-0.1,2.7h2.7v-18h-2.6V39.6z"/>
<path fill="#C1201F" d="M188.9,48.7c0,0,0,0.1,0,0.1v0.5l0,0.8l0,0.4h0.6L188.9,48.7z"/>
<path fill="#C1201F" d="M188.9,43.9v1.4l0.7-2.5h-0.7l0,0.6L188.9,43.9z"/>
<path fill="#C1201F" d="M188.9,49.4v-0.5c-0.1,0.5-0.3,0.9-0.6,1.2c-0.3,0.4-0.7,0.7-1.2,1c-0.5,0.2-1,0.4-1.6,0.4
	c-1,0-1.8-0.3-2.4-0.9c-0.5-0.6-0.8-1.4-0.8-2.6v-2.5c0-1.2,0.3-2,0.8-2.6c0.5-0.6,1.3-0.9,2.3-0.9c0.7,0,1.3,0.1,1.8,0.4
	c0.5,0.3,0.9,0.6,1.2,1.1c0.3,0.5,0.4,1.1,0.5,1.8v-1.4l0-0.5l0-0.6h-0.1c-0.2-0.6-0.4-1.2-0.8-1.6c-0.4-0.5-0.8-0.8-1.4-1.1
	c-0.6-0.2-1.2-0.4-2-0.4c-1.6,0-2.9,0.5-3.7,1.5c-0.8,1-1.3,2.5-1.3,4.4v2.1c0,1.9,0.4,3.4,1.2,4.4c0.8,1,2,1.5,3.6,1.5
	c0.9,0,1.6-0.1,2.2-0.4c0.6-0.3,1-0.6,1.4-1.1c0.3-0.5,0.6-1,0.7-1.5h0.1l0-0.4L188.9,49.4z"/>
<path fill="#C1201F" d="M202.7,40.4c-0.8-0.5-1.9-0.7-3.2-0.7c-1.9,0-3.3,0.5-4.3,1.5c-1,1-1.5,2.5-1.5,4.4v2.2
	c0,1.9,0.5,3.4,1.6,4.4c1.1,1,2.6,1.5,4.7,1.5c1,0,1.8-0.1,2.6-0.3c0.8-0.2,1.5-0.5,2.1-0.9l0.2-2.3c-0.7,0.4-1.4,0.7-2.1,0.9
	c-0.7,0.2-1.5,0.3-2.4,0.3c-0.8,0-1.4-0.1-1.9-0.2c-0.5-0.2-1-0.4-1.3-0.7c-0.3-0.3-0.6-0.6-0.7-1.1c-0.1-0.4-0.2-0.9-0.2-1.4v-0.3
	h-1.2v-2h1.2v-0.4c0-1.1,0.3-2,0.8-2.6c0.5-0.6,1.3-0.9,2.4-0.9c0.7,0,1.3,0.1,1.8,0.4c0.5,0.3,0.8,0.7,1.1,1.2
	c0.2,0.5,0.4,1.1,0.4,1.9c0,0.2,0,0.3,0,0.5h1.9v2h0.5c0-0.3,0.1-0.6,0.1-0.9c0-0.3,0-0.6,0-0.9v-0.5c0-1.2-0.2-2.2-0.6-3
	C204.2,41.5,203.6,40.9,202.7,40.4z"/>
<path fill="#C1201F" d="M202.7,45.8c0,0.2,0,0.4,0,0.7c0,0.4,0,0.9,0,1.3h1.9v-2H202.7z"/>
<path fill="#C1201F" d="M202.7,45.8h-6.3v0.8l0,0.3v0.9h6.3c0-0.5,0-0.9,0-1.3C202.7,46.2,202.7,46,202.7,45.8z"/>
<path fill="#C1201F" d="M196.4,46.6v-0.8h-1.2v2h1.2v-0.9L196.4,46.6z"/>
<path fill="#FFFFFF" d="M51.8,55.4V28.9L32.4,9.4L13,28.9v26.8l19.4-0.1L51.8,55.4z M21.8,32.8l10.5-10.6l10.5,10.6v14.4l-10.5,0.1
	l-10.5,0.1V32.8z"/>
<path fill="#C12D2C" d="M0,11.5L0,11.5L0,11.5L0,11.5z"/>
<path fill="#C12D2C" d="M0,0v65h64.8V0.2V0H0z M9.4,11.5L9.4,11.5L9.4,11.5L9.4,11.5z M51.8,55.4l-19.4,0.1L13,55.6V28.9L32.4,9.4
	l19.4,19.5V55.4z M19.6,11.5L19.6,11.5L19.6,11.5L19.6,11.5z M0,11.5L0,11.5L0,11.5L0,11.5z"/>
<path fill="#C12D2C" d="M19.7,11.5L19.7,11.5L19.7,11.5L19.7,11.5z"/>
<path fill="#C12D2C" d="M9.5,11.5L9.5,11.5L9.5,11.5L9.5,11.5z"/>
<path fill="#C1201F" d="M42.9,47.2V32.8L32.4,22.2L21.8,32.8v14.5l10.5-0.1L42.9,47.2z"/>
</svg>
