<svg width="46" height="41" viewBox="0 0 46 41" fill="none" xmlns="http://www.w3.org/2000/svg">
<path d="M17.1338 6.86664C17.1338 8.42256 17.7519 9.91477 18.8521 11.015C19.9523 12.1152 21.4445 12.7333 23.0004 12.7333C24.5564 12.7333 26.0486 12.1152 27.1488 11.015C28.249 9.91477 28.8671 8.42256 28.8671 6.86664C28.8671 5.31071 28.249 3.81851 27.1488 2.7183C26.0486 1.61809 24.5564 1 23.0004 1C21.4445 1 19.9523 1.61809 18.8521 2.7183C17.7519 3.81851 17.1338 5.31071 17.1338 6.86664V6.86664Z" stroke="#C12E2C" stroke-width="2" stroke-linecap="round" stroke-linejoin="round"/>
<path d="M30.3316 27.4V23C30.3316 21.0551 29.559 19.1899 28.1838 17.8146C26.8085 16.4394 24.9432 15.6667 22.9983 15.6667C21.0534 15.6667 19.1882 16.4394 17.8129 17.8146C16.4377 19.1899 15.665 21.0551 15.665 23V27.4H18.5984L20.065 39.1333H25.9317L27.3983 27.4H30.3316Z" stroke="#C12E2C" stroke-width="2" stroke-linecap="round" stroke-linejoin="round"/>
<path d="M3.93262 11.2666C3.93262 12.4335 4.39618 13.5527 5.22134 14.3778C6.0465 15.203 7.16565 15.6665 8.33259 15.6665C9.49954 15.6665 10.6187 15.203 11.4438 14.3778C12.269 13.5527 12.7326 12.4335 12.7326 11.2666C12.7326 10.0996 12.269 8.98046 11.4438 8.1553C10.6187 7.33015 9.49954 6.86658 8.33259 6.86658C7.16565 6.86658 6.0465 7.33015 5.22134 8.1553C4.39618 8.98046 3.93262 10.0996 3.93262 11.2666V11.2666Z" stroke="#C12E2C" stroke-width="2" stroke-linecap="round" stroke-linejoin="round"/>
<path d="M10.6799 18.9854C9.57672 18.6141 8.40101 18.5106 7.24988 18.6833C6.09875 18.8561 5.00522 19.3002 4.05958 19.979C3.11394 20.6577 2.34331 21.5517 1.81132 22.587C1.27933 23.6224 1.00124 24.7694 1 25.9334V27.4001H3.93332L5.39998 36.2H11.2666L12.0019 31.7883" stroke="#C12E2C" stroke-width="2" stroke-linecap="round" stroke-linejoin="round"/>
<path d="M33.2656 11.2666C33.2656 12.4335 33.7292 13.5527 34.5543 14.3778C35.3795 15.203 36.4987 15.6665 37.6656 15.6665C38.8325 15.6665 39.9517 15.203 40.7769 14.3778C41.602 13.5527 42.0656 12.4335 42.0656 11.2666C42.0656 10.0996 41.602 8.98046 40.7769 8.1553C39.9517 7.33015 38.8325 6.86658 37.6656 6.86658C36.4987 6.86658 35.3795 7.33015 34.5543 8.1553C33.7292 8.98046 33.2656 10.0996 33.2656 11.2666Z" stroke="#C12E2C" stroke-width="2" stroke-linecap="round" stroke-linejoin="round"/>
<path d="M35.32 18.9854C36.4232 18.6141 37.5989 18.5106 38.7501 18.6833C39.9012 18.8561 40.9947 19.3002 41.9404 19.979C42.886 20.6577 43.6566 21.5517 44.1886 22.587C44.7206 23.6224 44.9987 24.7694 44.9999 25.9334V27.4001H42.0666L40.6 36.2H34.7333L33.998 31.7883" stroke="#C12E2C" stroke-width="2" stroke-linecap="round" stroke-linejoin="round"/>
</svg>
