<svg width="23" height="23" viewBox="0 0 23 23" fill="none" xmlns="http://www.w3.org/2000/svg">
<path d="M12.5326 17.1212C13.2087 17.4072 13.9582 17.4705 14.6726 17.3021C15.3871 17.1336 16.0294 16.7421 16.5065 16.1843L17.0072 15.6835C17.2251 15.5087 17.3669 15.2564 17.403 14.9794C17.4391 14.7025 17.3668 14.4223 17.2011 14.1974L15.5857 12.582C15.3608 12.4163 15.0806 12.344 14.8036 12.3801C14.5266 12.4162 14.2744 12.558 14.0995 12.7759C13.9247 12.9937 13.6724 13.1355 13.3954 13.1716C13.1185 13.2078 12.8382 13.1354 12.6134 12.9697L10.0288 10.3851C9.86306 10.1603 9.7907 9.88003 9.82683 9.60306C9.86296 9.32608 10.0048 9.0738 10.2226 8.89897V8.89897C10.4405 8.72414 10.5823 8.47185 10.6184 8.19488C10.6545 7.9179 10.5822 7.63769 10.4165 7.41283L8.80107 5.79745C8.57621 5.63175 8.29599 5.55939 8.01901 5.59552C7.74204 5.63165 7.48975 5.77346 7.31492 5.9913L6.81415 6.49206C6.25839 6.97066 5.86842 7.61291 5.70011 8.32676C5.5318 9.04062 5.5938 9.78943 5.87723 10.4659C7.51524 13.1974 9.80108 15.4832 12.5326 17.1212V17.1212Z" stroke="#FFFFFF" stroke-width="1.5" stroke-linecap="round" stroke-linejoin="round"/>
<path d="M11.5 22C17.299 22 22 17.299 22 11.5C22 5.70101 17.299 1 11.5 1C5.70101 1 1 5.70101 1 11.5C1 17.299 5.70101 22 11.5 22Z" stroke="#FFFFFF" stroke-width="1.5" stroke-linecap="round" stroke-linejoin="round"/>
</svg>
