<svg width="18" height="18" viewBox="0 0 18 18" fill="none" xmlns="http://www.w3.org/2000/svg">
<path d="M11.0133 15.8569C11.7171 16.3109 12.5558 16.5088 13.3883 16.4172C14.2208 16.3256 14.9964 15.9502 15.5847 15.354L16.099 14.8512C16.3245 14.6205 16.4507 14.3108 16.4507 13.9883C16.4507 13.6658 16.3245 13.3561 16.099 13.1254L13.9161 10.9654C13.6874 10.7407 13.3796 10.6148 13.059 10.6148C12.7383 10.6148 12.4305 10.7407 12.2018 10.9654V10.9654C11.9712 11.1909 11.6615 11.3172 11.339 11.3172C11.0165 11.3172 10.7068 11.1909 10.4761 10.9654L7.04756 7.53687C6.93319 7.42416 6.84236 7.28983 6.78037 7.1417C6.71837 6.99357 6.68645 6.83459 6.68645 6.67401C6.68645 6.51343 6.71837 6.35446 6.78037 6.20633C6.84236 6.0582 6.93319 5.92387 7.04756 5.81116V5.81116C7.27231 5.58247 7.39824 5.27465 7.39824 4.95401C7.39824 4.63337 7.27231 4.32556 7.04756 4.09687L4.87613 1.92544C4.64551 1.69997 4.3358 1.57373 4.01327 1.57373C3.69075 1.57373 3.38104 1.69997 3.15042 1.92544L2.64756 2.43973C2.05138 3.028 1.67594 3.80361 1.58436 4.63615C1.49279 5.46868 1.69066 6.30735 2.1447 7.01116C4.51047 10.4977 7.52063 13.5001 11.0133 15.8569V15.8569Z" stroke="#231F25" stroke-width="1.69688" stroke-linecap="round" stroke-linejoin="round"/>
</svg>
