<svg width="47" height="47" viewBox="0 0 47 47" fill="none" xmlns="http://www.w3.org/2000/svg">
<path d="M1 39.1734C1 40.7309 1.61874 42.2247 2.72011 43.3261C3.82148 44.4275 5.31526 45.0462 6.87283 45.0462C8.4304 45.0462 9.92418 44.4275 11.0256 43.3261C12.1269 42.2247 12.7457 40.7309 12.7457 39.1734C12.7457 37.6158 12.1269 36.122 11.0256 35.0206C9.92418 33.9193 8.4304 33.3005 6.87283 33.3005C5.31526 33.3005 3.82148 33.9193 2.72011 35.0206C1.61874 36.122 1 37.6158 1 39.1734V39.1734Z" stroke="#C12E2C" stroke-width="2" stroke-linecap="round" stroke-linejoin="round"/>
<path d="M1 39.1734V6.87283C1 5.31526 1.61874 3.82148 2.72011 2.72011C3.82148 1.61874 5.31526 1 6.87283 1C8.4304 1 9.92418 1.61874 11.0256 2.72011C12.1269 3.82148 12.7457 5.31526 12.7457 6.87283V39.1734" stroke="#C12E2C" stroke-width="2" stroke-linecap="round" stroke-linejoin="round"/>
<path d="M6.87305 45.0462H42.11C42.8888 45.0462 43.6357 44.7368 44.1864 44.1861C44.7371 43.6355 45.0465 42.8886 45.0465 42.1098V11.2774C45.0465 10.4986 44.7371 9.75174 44.1864 9.20106C43.6357 8.65037 42.8888 8.341 42.11 8.341H12.7459" stroke="#C12E2C" stroke-width="2" stroke-linecap="round" stroke-linejoin="round"/>
<path d="M34.7691 23.5125V34.7688H23.0234V23.5125" stroke="#C12E2C" stroke-width="2" stroke-linecap="round" stroke-linejoin="round"/>
<path d="M20.0869 25.9595L28.8962 18.6185L37.7054 25.9595" stroke="#C12E2C" stroke-width="2" stroke-linecap="round" stroke-linejoin="round"/>
</svg>
