<svg width="56" height="63" viewBox="0 0 56 63" fill="none" xmlns="http://www.w3.org/2000/svg">
<path d="M37.3007 61.6367V51.5405L39.993 51.9714C41.1585 52.1644 42.3524 52.0995 43.4899 51.7809C44.6278 51.4624 45.6818 50.8983 46.5778 50.1281C47.4739 49.3579 48.19 48.4003 48.6756 47.3234C49.1612 46.2463 49.4048 45.0758 49.3889 43.8944V37.406L51.9467 36.7061C52.5747 36.5482 53.1554 36.2415 53.64 35.8119C54.1248 35.3823 54.4989 34.8425 54.7312 34.238C54.9635 33.6336 55.047 32.9822 54.9748 32.3386C54.9026 31.6951 54.6765 31.0785 54.3159 30.5406L49.5237 23.2445V21.2522C49.5237 9.32536 37.4621 -0.286126 23.1123 1.14079C17.9838 1.59089 13.1321 3.66265 9.26037 7.05574C5.3887 10.4488 2.69835 14.9868 1.57935 20.0118C0.460344 25.0368 0.970878 30.2875 3.03692 35.0029C5.10296 39.7183 8.61711 43.6532 13.0699 46.2368V61.6367" stroke="#518D43" stroke-width="2" stroke-linecap="round" stroke-linejoin="round"/>
<path d="M39.3579 22.2965C39.3832 21.573 39.2625 20.8518 39.003 20.1759C38.7435 19.5001 38.3505 18.8834 37.8474 18.3627C37.3445 17.8421 36.7416 17.4281 36.0752 17.1455C35.4084 16.8629 34.6919 16.7175 33.968 16.718C33.0078 16.7296 32.0715 17.0198 31.273 17.5534C31.2873 17.2751 31.2873 16.9962 31.273 16.718C31.4528 15.9286 31.4525 15.1089 31.2722 14.3196C31.0919 13.5304 30.7362 12.7919 30.2312 12.159C29.7264 11.5262 29.0855 11.0152 28.356 10.6639C27.6265 10.3127 26.8274 10.1304 26.0178 10.1304C25.2083 10.1304 24.409 10.3127 23.6797 10.6639C22.9502 11.0152 22.3092 11.5262 21.8043 12.159C21.2995 12.7919 20.9436 13.5304 20.7633 14.3196C20.5829 15.1089 20.5827 15.9286 20.7626 16.718C20.7347 16.9957 20.7347 17.2756 20.7626 17.5534C19.9615 17.0254 19.027 16.7356 18.0677 16.718C16.6761 16.8216 15.3791 17.4609 14.4492 18.5013C13.5194 19.5417 13.0293 20.9022 13.082 22.2965C13.0379 23.7082 13.5497 25.0809 14.5073 26.1191C15.4649 27.1574 16.7917 27.7781 18.2024 27.8482C17.6244 28.3853 17.1633 29.0358 16.848 29.7592C16.5327 30.4825 16.3699 31.2632 16.3698 32.0523C16.3445 32.7759 16.4652 33.4971 16.7247 34.173C16.9842 34.8489 17.3772 35.4655 17.8802 35.9861C18.3833 36.5068 18.986 36.9208 19.6526 37.2032C20.3191 37.4859 21.0358 37.6314 21.7598 37.6309C22.7249 37.6171 23.667 37.335 24.4809 36.8162C25.2948 36.2974 25.948 35.5622 26.3682 34.6934C26.7881 35.5622 27.4416 36.2974 28.2555 36.8162C29.0694 37.335 30.0115 37.6171 30.9766 37.6309C32.392 37.5608 33.723 36.9364 34.6813 35.8921C35.6397 34.8481 36.1482 33.4685 36.097 32.0523C36.0967 31.2632 35.934 30.4825 35.6186 29.7592C35.3033 29.0358 34.8425 28.3853 34.2644 27.8482C35.6704 27.7714 36.9904 27.1475 37.9422 26.1102C38.8941 25.0726 39.4021 23.7038 39.3579 22.2965Z" stroke="#518D43" stroke-width="2" stroke-linecap="round" stroke-linejoin="round"/>
<path d="M26.327 25.2434C25.7689 25.2434 25.3164 24.7909 25.3164 24.2328C25.3164 23.6746 25.7689 23.2222 26.327 23.2222" stroke="#518D43" stroke-width="2"/>
<path d="M26.3281 25.2434C26.8863 25.2434 27.3387 24.7909 27.3387 24.2328C27.3387 23.6746 26.8863 23.2222 26.3281 23.2222" stroke="#518D43" stroke-width="2"/>
</svg>
