<svg width="57" height="57" viewBox="0 0 57 57" fill="none" xmlns="http://www.w3.org/2000/svg">
<path d="M49.094 55.9501C47.9794 52.7427 45.9081 49.9634 43.1654 47.9952C40.4227 46.0269 37.1435 44.9666 33.7796 44.9601H33.7651C30.4016 44.9667 27.1228 46.0272 24.3805 47.9954C21.6382 49.9637 19.5673 52.7428 18.4531 55.9501" stroke="#C12E2C" stroke-width="2" stroke-linecap="round" stroke-linejoin="round"/>
<path d="M25.1758 26.1084C27.5139 28.5567 30.5346 30.2271 33.8356 30.8972C37.1366 31.5673 40.5612 31.2054 43.6536 29.8596" stroke="#C12E2C" stroke-width="2" stroke-linecap="round" stroke-linejoin="round"/>
<path d="M23.7969 31.2226C23.7969 33.8944 24.8472 36.4568 26.7167 38.3461C28.5862 40.2354 31.1217 41.2968 33.7656 41.2968C36.4095 41.2968 38.9451 40.2354 40.8146 38.3461C42.6841 36.4568 43.7344 33.8944 43.7344 31.2226C43.7344 28.5508 42.6841 25.9884 40.8146 24.0991C38.9451 22.2098 36.4095 21.1484 33.7656 21.1484C31.1217 21.1484 28.5862 22.2098 26.7167 24.0991C24.8472 25.9884 23.7969 28.5508 23.7969 31.2226V31.2226Z" stroke="#C12E2C" stroke-width="2" stroke-linecap="round" stroke-linejoin="round"/>
<path d="M3.96094 37.6333C3.96094 39.5765 4.72477 41.44 6.08441 42.814C7.44405 44.1881 9.28812 44.96 11.2109 44.96C13.1338 44.96 14.9778 44.1881 16.3375 42.814C17.6971 41.44 18.4609 39.5765 18.4609 37.6333C18.4609 35.6902 17.6971 33.8266 16.3375 32.4526C14.9778 31.0786 13.1338 30.3066 11.2109 30.3066C9.28812 30.3066 7.44405 31.0786 6.08441 32.4526C4.72477 33.8266 3.96094 35.6902 3.96094 37.6333V37.6333Z" stroke="#C12E2C" stroke-width="2" stroke-linecap="round" stroke-linejoin="round"/>
<path d="M13.3588 48.8384C10.7964 48.3173 8.134 48.7503 5.86264 50.0573C3.59129 51.3643 1.86422 53.4573 1 55.9501" stroke="#C12E2C" stroke-width="2" stroke-linecap="round" stroke-linejoin="round"/>
<path d="M33.7734 44.9601V55.9501" stroke="#C12E2C" stroke-width="2" stroke-linecap="round" stroke-linejoin="round"/>
<path d="M55.375 55.95V1H24.5625L31.8125 8.32666L24.5625 15.6533H55.375" stroke="#C12E2C" stroke-width="2" stroke-linecap="round" stroke-linejoin="round"/>
</svg>
