<svg width="53" height="37" viewBox="0 0 53 37" fill="none" xmlns="http://www.w3.org/2000/svg">
<path d="M13.803 15.5445C16.899 15.5445 19.393 16.426 21.285 18.189C23.177 19.952 24.123 22.4245 24.123 25.6065C24.123 28.7025 23.0695 31.2825 20.9625 33.3465C18.8985 35.3675 15.9315 36.378 12.0615 36.378C8.1915 36.378 5.203 35.088 3.096 32.508C1.032 29.928 0 26.5955 0 22.5105C0 18.6405 0.946 15.2435 2.838 12.3195C4.773 9.3525 7.181 6.8585 10.062 4.8375C12.943 2.8165 15.8025 1.204 18.6405 0L20.9625 4.8375C19.1135 5.5685 17.2215 6.60049 15.2865 7.93349C13.3945 9.2665 11.8035 10.75 10.5135 12.384C9.2235 14.018 8.557 15.6305 8.514 17.2215C8.686 16.9635 9.245 16.6195 10.191 16.1895C11.137 15.7595 12.341 15.5445 13.803 15.5445ZM42.5055 15.5445C45.6015 15.5445 48.0955 16.426 49.9875 18.189C51.8795 19.952 52.8255 22.4245 52.8255 25.6065C52.8255 28.7025 51.772 31.2825 49.665 33.3465C47.601 35.3675 44.634 36.378 40.764 36.378C36.894 36.378 33.9055 35.088 31.7985 32.508C29.7345 29.928 28.7025 26.5955 28.7025 22.5105C28.7025 18.6405 29.6485 15.2435 31.5405 12.3195C33.4755 9.3525 35.8835 6.8585 38.7645 4.8375C41.6455 2.8165 44.505 1.204 47.343 0L49.665 4.8375C47.816 5.5685 45.924 6.60049 43.989 7.93349C42.097 9.2665 40.506 10.75 39.216 12.384C37.926 14.018 37.2595 15.6305 37.2165 17.2215C37.3885 16.9635 37.9475 16.6195 38.8935 16.1895C39.8395 15.7595 41.0435 15.5445 42.5055 15.5445Z" fill="#C12E2C"/>
</svg>
