<svg width="56" height="62" viewBox="0 0 56 62" fill="none" xmlns="http://www.w3.org/2000/svg">
<path d="M22.2361 48.7458C20.8722 47.2308 19.3629 45.8839 17.7348 44.7288C16.4146 43.8075 14.9248 43.2221 13.3736 43.0154C11.8225 42.8086 10.249 42.9857 8.76773 43.5337C7.28645 44.0817 5.93458 44.9868 4.81048 46.1832C3.68638 47.3797 2.81832 48.8373 2.26943 50.4501C1.34408 53.6192 0.919004 56.9398 1.01271 60.2674H54.77C54.77 50.3895 52.9446 40.3299 44.2957 37.1294C42.2762 36.3832 40.1314 36.1419 38.0168 36.423C35.9022 36.7041 33.8708 37.5006 32.0701 38.7547C26.7316 42.788 22.1819 47.9617 18.6905 53.9693" stroke="#C12E2C" stroke-width="2" stroke-linecap="round" stroke-linejoin="round"/>
<path d="M1.01367 12.8851L11.7938 1" stroke="#C12E2C" stroke-width="2" stroke-linecap="round" stroke-linejoin="round"/>
<path d="M6.4043 6.9425L22.5769 24.7728" stroke="#C12E2C" stroke-width="2" stroke-linecap="round" stroke-linejoin="round"/>
<path d="M23.2882 37.4428L19.8812 33.6866C19.1692 32.8969 18.7695 31.8288 18.7695 30.7153C18.7695 29.6019 19.1692 28.5337 19.8812 27.744L25.2641 21.8015C25.9803 21.0165 26.9492 20.5759 27.9591 20.5759C28.969 20.5759 29.9379 21.0165 30.6541 21.8015L34.0611 25.5577C34.4796 26.0187 34.7953 26.5805 34.9834 27.1988L36.1015 30.9023" stroke="#C12E2C" stroke-width="2" stroke-linecap="round" stroke-linejoin="round"/>
</svg>
