<svg width="20" height="20" viewBox="0 0 20 20" fill="none" xmlns="http://www.w3.org/2000/svg">
<path d="M6.42773 7.85707C6.42773 8.80427 6.80401 9.71268 7.47378 10.3825C8.14355 11.0522 9.05196 11.4285 9.99916 11.4285C10.9464 11.4285 11.8548 11.0522 12.5245 10.3825C13.1943 9.71268 13.5706 8.80427 13.5706 7.85707C13.5706 6.90987 13.1943 6.00146 12.5245 5.33169C11.8548 4.66192 10.9464 4.28564 9.99916 4.28564C9.05196 4.28564 8.14355 4.66192 7.47378 5.33169C6.80401 6.00146 6.42773 6.90987 6.42773 7.85707Z" stroke="#fff" stroke-width="1.4" stroke-linecap="round" stroke-linejoin="round"/>
<path d="M3.89844 16.9998C4.53577 15.9527 5.43182 15.0873 6.50039 14.4868C7.56897 13.8862 8.7741 13.5708 9.99987 13.5708C11.2256 13.5708 12.4308 13.8862 13.4993 14.4868C14.5679 15.0873 15.464 15.9527 16.1013 16.9998" stroke="#fff" stroke-width="1.4" stroke-linecap="round" stroke-linejoin="round"/>
</svg>
