<?xml version="1.0" encoding="utf-8"?>
<!-- Generator: Adobe Illustrator 25.4.1, SVG Export Plug-In . SVG Version: 6.00 Build 0)  -->
<svg version="1.1" id="Layer_1" xmlns="http://www.w3.org/2000/svg" xmlns:xlink="http://www.w3.org/1999/xlink" x="0px" y="0px"
	 viewBox="0 0 47.8 47.8" style="enable-background:new 0 0 47.8 47.8;" xml:space="preserve">
<g>
	<g id="Icon-Play" transform="translate(128.000000, 278.000000)">
		<path id="Fill-124" d="M-104.1-230.2c-13.2,0-23.9-10.7-23.9-23.9c0-13.2,10.7-23.9,23.9-23.9s23.9,10.7,23.9,23.9
			S-90.9-230.2-104.1-230.2L-104.1-230.2z M-104.1-275.4c-11.7,0-21.3,9.6-21.3,21.3s9.6,21.3,21.3,21.3s21.3-9.6,21.3-21.3
			C-82.8-265.9-92.4-275.4-104.1-275.4L-104.1-275.4z"/>
		<path id="Fill-125" d="M-111.2-241.8v-24.7l21.2,12.4L-111.2-241.8L-111.2-241.8z M-108.4-261.6v14.9l12.7-7.4L-108.4-261.6
			L-108.4-261.6z"/>
	</g>
</g>
</svg>
