<svg width="52" height="59" viewBox="0 0 52 59" fill="none" xmlns="http://www.w3.org/2000/svg">
<path d="M36.1068 42.6301C35.7849 45.0832 34.5819 47.3354 32.7222 48.9671C30.8624 50.5988 28.4728 51.4984 25.9987 51.4984C23.5246 51.4984 21.135 50.5988 19.2752 48.9671C17.4155 47.3354 16.2125 45.0832 15.8906 42.6301" stroke="#C12E2C" stroke-width="2" stroke-linecap="round" stroke-linejoin="round"/>
<path d="M40.6523 45.0208V57.8585" stroke="#C12E2C" stroke-width="2" stroke-linecap="round" stroke-linejoin="round"/>
<path d="M11.3477 45.0208V57.8585" stroke="#C12E2C" stroke-width="2" stroke-linecap="round" stroke-linejoin="round"/>
<path d="M36.7904 19.6512C37.7494 22.348 37.6584 25.3068 36.5356 27.9396C35.6596 30.0091 34.1934 31.7747 32.32 33.016C30.4467 34.2573 28.2492 34.9193 26.0019 34.9193C23.7546 34.9193 21.5571 34.2573 19.6837 33.016C17.8104 31.7747 16.3442 30.0091 15.4682 27.9396C14.3453 25.3068 14.2544 22.348 15.2133 19.6512" stroke="#C12E2C" stroke-width="2" stroke-linecap="round" stroke-linejoin="round"/>
<path d="M51 57.8585C49.0663 52.7951 45.6407 48.4383 41.1765 45.3645C36.7123 42.2908 31.42 40.645 26 40.645C20.58 40.645 15.2877 42.2908 10.8235 45.3645C6.35935 48.4383 2.93373 52.7951 1 57.8585" stroke="#C12E2C" stroke-width="2" stroke-linecap="round" stroke-linejoin="round"/>
<path d="M26.0003 13.4732C29.4447 13.4732 32.2369 10.681 32.2369 7.23662C32.2369 3.79223 29.4447 1 26.0003 1C22.5559 1 19.7637 3.79223 19.7637 7.23662C19.7637 10.681 22.5559 13.4732 26.0003 13.4732Z" stroke="#C12E2C" stroke-width="2" stroke-linecap="round" stroke-linejoin="round"/>
<path d="M42.013 19.6512H9.98633" stroke="#C12E2C" stroke-width="2" stroke-linecap="round" stroke-linejoin="round"/>
<path d="M11.9082 19.6513V17.7295C11.9082 15.0126 12.6934 12.3535 14.1693 10.0723C15.6452 7.79114 17.7488 5.98507 20.2271 4.87146" stroke="#C12E2C" stroke-width="2" stroke-linecap="round" stroke-linejoin="round"/>
<path d="M40.0937 19.636V17.7296C40.0943 15.0131 39.3097 12.3544 37.8342 10.0735C36.3587 7.7927 34.2553 5.98705 31.7773 4.87402" stroke="#C12E2C" stroke-width="2" stroke-linecap="round" stroke-linejoin="round"/>
</svg>
