<svg width="56" height="57" viewBox="0 0 56 57" fill="none" xmlns="http://www.w3.org/2000/svg">
<path d="M26.1816 4.60241C28.8577 2.59538 32.0397 1.37319 35.3713 1.07279C38.7028 0.772385 42.0522 1.40564 45.0441 2.90159C48.036 4.39754 50.5522 6.69708 52.3108 9.54255C54.0694 12.388 55.0009 15.667 55.0009 19.012C55.0009 22.3571 54.0694 25.636 52.3108 28.4815C50.5522 31.327 48.036 33.6265 45.0441 35.1225C42.0522 36.6184 38.7028 37.2517 35.3713 36.9513C32.0397 36.6509 28.8577 35.4287 26.1816 33.4216" stroke="#518D43" stroke-width="2" stroke-linecap="round" stroke-linejoin="round"/>
<path d="M33.4044 8.18066L37.1869 10.7384C37.6803 11.0673 38.085 11.513 38.3648 12.0358C38.6447 12.5587 38.7911 13.1425 38.7912 13.7356V17.8591C38.7912 18.692 38.5027 19.4992 37.9746 20.1433C37.4465 20.7874 36.7116 21.2286 35.8948 21.3919L29.7852 22.6143L31.0916 27.8402" stroke="#518D43" stroke-width="2" stroke-linecap="round" stroke-linejoin="round"/>
<path d="M54.9107 20.8442L47.2112 23.4092C46.3768 23.6852 45.672 24.2568 45.2297 25.0163C44.7874 25.7757 44.638 26.6707 44.8096 27.5327L46.2313 34.4685" stroke="#518D43" stroke-width="2" stroke-linecap="round" stroke-linejoin="round"/>
<path d="M18.9784 36.2267V8.20481C18.9784 6.29397 18.2193 4.4614 16.8681 3.11024C15.517 1.75908 13.6844 1 11.7736 1C9.86275 1 8.03018 1.75908 6.67901 3.11024C5.32785 4.4614 4.56877 6.29397 4.56877 8.20481V36.2267C3.2321 37.4307 2.21765 38.9498 1.61771 40.6457C1.01778 42.3417 0.851387 44.1608 1.13368 45.9375C1.41597 47.7141 2.13799 49.3921 3.23406 50.8186C4.33012 52.2451 5.76545 53.3749 7.40947 54.1053C9.05349 54.8357 10.854 55.1434 12.6473 55.0006C14.4406 54.8577 16.1697 54.2687 17.6774 53.2873C19.185 52.3058 20.4233 50.963 21.2797 49.3809C22.1361 47.7989 22.5834 46.0278 22.5808 44.2288C22.5779 42.7165 22.2554 41.2219 21.6346 39.8429C21.0138 38.4638 20.1086 37.2315 18.9784 36.2267V36.2267Z" stroke="#518D43" stroke-width="2" stroke-linecap="round" stroke-linejoin="round"/>
<path d="M11.7734 11.8071V40.6264" stroke="#518D43" stroke-width="2" stroke-linecap="round" stroke-linejoin="round"/>
<path d="M8.17188 44.2289C8.17188 45.1843 8.55141 46.1006 9.22699 46.7762C9.90258 47.4517 10.8189 47.8313 11.7743 47.8313C12.7297 47.8313 13.646 47.4517 14.3216 46.7762C14.9971 46.1006 15.3767 45.1843 15.3767 44.2289C15.3767 43.2735 14.9971 42.3572 14.3216 41.6816C13.646 41.006 12.7297 40.6265 11.7743 40.6265C10.8189 40.6265 9.90258 41.006 9.22699 41.6816C8.55141 42.3572 8.17188 43.2735 8.17188 44.2289Z" stroke="#518D43" stroke-width="2" stroke-linecap="round" stroke-linejoin="round"/>
</svg>
