<?xml version="1.0" encoding="utf-8"?>
<!-- Generator: Adobe Illustrator 25.4.1, SVG Export Plug-In . SVG Version: 6.00 Build 0)  -->
<svg version="1.1" id="Lag_1" xmlns="http://www.w3.org/2000/svg" xmlns:xlink="http://www.w3.org/1999/xlink" x="0px" y="0px"
	 viewBox="0 0 7.1 8.1" style="enable-background:new 0 0 7.1 8.1;" xml:space="preserve">
<style type="text/css">
	.st0{fill-rule:evenodd;clip-rule:evenodd;fill:#FFFFFF;}
</style>
<path id="Rounded_Rectangle_504_copy" class="st0" d="M3.5,0c0.3,0,0.5,0.2,0.5,0.5c0,0,0,0,0,0v7c0,0.3-0.2,0.5-0.5,0.5
	S3,7.9,3,7.6c0,0,0,0,0,0v-7C3,0.2,3.2,0,3.5,0z M0.5,0c0.3,0,0.5,0.2,0.5,0.5c0,0,0,0,0,0v7c0,0.3-0.2,0.5-0.5,0.5
	C0.3,8.1,0,7.9,0,7.6c0,0,0,0,0,0v-7C0,0.2,0.2,0,0.5,0z M6.5,0c0.3,0,0.5,0.2,0.5,0.5c0,0,0,0,0,0v7c0,0.3-0.2,0.5-0.5,0.5
	S6,7.9,6,7.6c0,0,0,0,0,0v-7C6,0.2,6.2,0,6.5,0z"/>
</svg>
